<?xml version="1.0" encoding="utf-8"?>
<!-- Generator: Adobe Illustrator 19.1.0, SVG Export Plug-In . SVG Version: 6.00 Build 0)  -->
<svg version="1.1" xmlns="http://www.w3.org/2000/svg" xmlns:xlink="http://www.w3.org/1999/xlink" x="0px" y="0px"
	 viewBox="0 0 1000 600" style="enable-background:new 0 0 1000 600;" xml:space="preserve">
<style type="text/css">
	.st0{
		fill:none;
		stroke:#000000;
		stroke-miterlimit:10;

		stroke-dasharray: 1000;
		stroke-dashoffset: 1000;

		-webkit-animation: outline 6s forwards;
		animation: outline 6s forwards;
	}

	.fill {
		fill:none;
		-webkit-animation: filling 2s forwards;
		animation: filling 2s forwards;
	}

	@-webkit-keyframes outline {
		to { stroke-dashoffset: 0;}
	}

	@keyframes outline {
		to { stroke-dashoffset: 0; }
	}

	@-webkit-keyframes filling {
		from { fill: none; }
		to { fill: #000;}
	}

	@keyframes filling {
		from { fill:none; }
		to { fill: #000; }
	}


	.o2 {
		animation-delay: 0.2s;
	}

	.o3 {
		animation-delay: 0.4s;
	}

	.o4 {
		animation-delay: 0.6s;
	}

	.o5 {
		animation-delay: 0.8s;
	}


	.l1 {
		animation-delay: 0.4s;
	}

	.l2 {
		animation-delay: 0.6s;
	}

	.l3 {
		animation-delay: 0.8s;
	}

	.l4 {
		animation-delay: 1.0s;
	}

	.l5 {
		animation-delay: 1.2s;
	}
</style>
<g id="outline">
	<g>
		<path class="st0 o1" d="M389.2,276.8h0.7l17.9,41.2h-6.6l-2.3-5.8h-18.7l-2.3,5.8h-6.1L389.2,276.8z M396.6,306.9l-5.1-12.7
			c-0.3-0.6-0.5-1.2-0.8-2c-0.2-0.7-0.4-1.4-0.6-2c-0.2-0.7-0.4-1.4-0.7-2.2c-0.2,0.7-0.4,1.4-0.6,2.2c-0.2,0.6-0.4,1.3-0.7,2
			c-0.2,0.7-0.5,1.4-0.7,2l-5.1,12.7H396.6z"/>
		<path class="st0 o2" d="M426.5,277.2h14.8c1.9,0,3.6,0.3,5,0.8c1.4,0.5,2.6,1.3,3.6,2.2c1,0.9,1.7,2,2.2,3.3c0.5,1.2,0.7,2.6,0.7,4
			c0,2-0.5,3.6-1.4,5c-0.9,1.3-2.3,2.3-4.1,2.9c2.8,0.6,4.8,1.9,6.2,3.7c1.4,1.8,2.1,4,2.1,6.7c0,1.8-0.3,3.4-0.9,4.9
			c-0.6,1.5-1.4,2.8-2.5,3.9c-1.1,1.1-2.5,2-4.1,2.6c-1.6,0.6-3.5,0.9-5.7,0.9h-15.9V277.2z M441,293.1c1.9,0,3.3-0.5,4.2-1.4
			c0.9-1,1.4-2.2,1.4-3.7c0-1.5-0.5-2.8-1.4-3.7c-0.9-1-2.4-1.4-4.4-1.4h-8v10.4H441z M442,312.4c2.5,0,4.3-0.6,5.5-2
			c1.2-1.3,1.8-3,1.8-5s-0.6-3.7-1.9-5c-1.3-1.3-3.1-2-5.7-2h-8.9v13.9H442z"/>
		<path class="st0 o3" d="M494.2,318.5c-2.9,0-5.7-0.5-8.2-1.6c-2.6-1-4.8-2.5-6.7-4.3c-1.9-1.9-3.4-4.1-4.5-6.6
			c-1.1-2.6-1.6-5.4-1.6-8.4c0-3,0.5-5.8,1.6-8.4c1.1-2.6,2.6-4.8,4.5-6.6c1.9-1.9,4.1-3.3,6.7-4.3c2.6-1,5.3-1.6,8.2-1.6
			c2.9,0,5.6,0.5,8.2,1.6c2.5,1,4.8,2.5,6.7,4.3c1.9,1.9,3.4,4.1,4.5,6.6c1.1,2.6,1.6,5.4,1.6,8.4c0,3-0.5,5.8-1.6,8.4
			c-1.1,2.6-2.6,4.8-4.5,6.6c-1.9,1.9-4.1,3.3-6.7,4.3C499.8,318,497.1,318.5,494.2,318.5z M494.2,312.8c2.1,0,4.1-0.4,5.9-1.2
			c1.8-0.8,3.3-1.8,4.6-3.2c1.3-1.4,2.3-3,3-4.8c0.7-1.9,1.1-3.9,1.1-6c0-2.2-0.4-4.2-1.1-6c-0.7-1.9-1.7-3.5-3-4.8
			c-1.3-1.4-2.8-2.4-4.6-3.2c-1.8-0.8-3.7-1.2-5.9-1.2c-2.1,0-4.1,0.4-5.9,1.2c-1.8,0.8-3.3,1.9-4.6,3.2c-1.3,1.4-2.3,3-3,4.8
			c-0.7,1.9-1.1,3.9-1.1,6c0,2.2,0.4,4.2,1.1,6c0.7,1.9,1.7,3.5,3,4.8c1.3,1.4,2.8,2.4,4.6,3.2C490.1,312.4,492.1,312.8,494.2,312.8
			z"/>
		<path class="st0 o4" d="M550.5,318.5c-2.2,0-4.3-0.3-6.2-0.9c-1.9-0.6-3.5-1.5-4.9-2.8c-1.4-1.2-2.5-2.8-3.3-4.6
			c-0.8-1.9-1.2-4-1.2-6.5v-26.5h6.4v26.1c0,3.3,0.8,5.7,2.3,7.3c1.6,1.5,3.8,2.3,6.8,2.3s5.3-0.8,6.8-2.3c1.6-1.5,2.4-3.9,2.4-7.3
			v-26.1h6.4v26.5c0,2.5-0.4,4.6-1.2,6.5c-0.8,1.9-1.9,3.4-3.3,4.6c-1.4,1.2-3,2.2-4.9,2.8C554.7,318.2,552.7,318.5,550.5,318.5z"/>
		<path class="st0 o5" d="M596.7,282.8h-12.1v-5.6h30.6v5.6h-12.1V318h-6.4V282.8z"/>
	</g>
</g>
<g id="fill">
	<g>
		<path class="fill l1" d="M389.2,276.8h0.7l17.9,41.2h-6.6l-2.3-5.8h-18.7l-2.3,5.8h-6.1L389.2,276.8z M396.6,306.9l-5.1-12.7
			c-0.3-0.6-0.5-1.2-0.8-2c-0.2-0.7-0.4-1.4-0.6-2c-0.2-0.7-0.4-1.4-0.7-2.2c-0.2,0.7-0.4,1.4-0.6,2.2c-0.2,0.6-0.4,1.3-0.7,2
			c-0.2,0.7-0.5,1.4-0.7,2l-5.1,12.7H396.6z"/>
		<path class="fill l2" d="M426.5,277.2h14.8c1.9,0,3.6,0.3,5,0.8c1.4,0.5,2.6,1.3,3.6,2.2c1,0.9,1.7,2,2.2,3.3c0.5,1.2,0.7,2.6,0.7,4
			c0,2-0.5,3.6-1.4,5c-0.9,1.3-2.3,2.3-4.1,2.9c2.8,0.6,4.8,1.9,6.2,3.7c1.4,1.8,2.1,4,2.1,6.7c0,1.8-0.3,3.4-0.9,4.9
			c-0.6,1.5-1.4,2.8-2.5,3.9c-1.1,1.1-2.5,2-4.1,2.6c-1.6,0.6-3.5,0.9-5.7,0.9h-15.9V277.2z M441,293.1c1.9,0,3.3-0.5,4.2-1.4
			c0.9-1,1.4-2.2,1.4-3.7c0-1.5-0.5-2.8-1.4-3.7c-0.9-1-2.4-1.4-4.4-1.4h-8v10.4H441z M442,312.4c2.5,0,4.3-0.6,5.5-2
			c1.2-1.3,1.8-3,1.8-5s-0.6-3.7-1.9-5c-1.3-1.3-3.1-2-5.7-2h-8.9v13.9H442z"/>
		<path class="fill l3" d="M494.2,318.5c-2.9,0-5.7-0.5-8.2-1.6c-2.6-1-4.8-2.5-6.7-4.3c-1.9-1.9-3.4-4.1-4.5-6.6c-1.1-2.6-1.6-5.4-1.6-8.4
			c0-3,0.5-5.8,1.6-8.4c1.1-2.6,2.6-4.8,4.5-6.6c1.9-1.9,4.1-3.3,6.7-4.3c2.6-1,5.3-1.6,8.2-1.6c2.9,0,5.6,0.5,8.2,1.6
			c2.5,1,4.8,2.5,6.7,4.3c1.9,1.9,3.4,4.1,4.5,6.6c1.1,2.6,1.6,5.4,1.6,8.4c0,3-0.5,5.8-1.6,8.4c-1.1,2.6-2.6,4.8-4.5,6.6
			c-1.9,1.9-4.1,3.3-6.7,4.3C499.8,318,497.1,318.5,494.2,318.5z M494.2,312.8c2.1,0,4.1-0.4,5.9-1.2c1.8-0.8,3.3-1.8,4.6-3.2
			c1.3-1.4,2.3-3,3-4.8c0.7-1.9,1.1-3.9,1.1-6c0-2.2-0.4-4.2-1.1-6c-0.7-1.9-1.7-3.5-3-4.8c-1.3-1.4-2.8-2.4-4.6-3.2
			c-1.8-0.8-3.7-1.2-5.9-1.2c-2.1,0-4.1,0.4-5.9,1.2c-1.8,0.8-3.3,1.9-4.6,3.2c-1.3,1.4-2.3,3-3,4.8c-0.7,1.9-1.1,3.9-1.1,6
			c0,2.2,0.4,4.2,1.1,6c0.7,1.9,1.7,3.5,3,4.8c1.3,1.4,2.8,2.4,4.6,3.2C490.1,312.4,492.1,312.8,494.2,312.8z"/>
		<path class="fill l4" d="M550.5,318.5c-2.2,0-4.3-0.3-6.2-0.9c-1.9-0.6-3.5-1.5-4.9-2.8c-1.4-1.2-2.5-2.8-3.3-4.6c-0.8-1.9-1.2-4-1.2-6.5v-26.5
			h6.4v26.1c0,3.3,0.8,5.7,2.3,7.3c1.6,1.5,3.8,2.3,6.8,2.3s5.3-0.8,6.8-2.3c1.6-1.5,2.4-3.9,2.4-7.3v-26.1h6.4v26.5
			c0,2.5-0.4,4.6-1.2,6.5c-0.8,1.9-1.9,3.4-3.3,4.6c-1.4,1.2-3,2.2-4.9,2.8C554.7,318.2,552.7,318.5,550.5,318.5z"/>
		<path class="fill l5" d="M596.7,282.8h-12.1v-5.6h30.6v5.6h-12.1V318h-6.4V282.8z"/>
	</g>
</g>
</svg>
