<?xml version="1.0" encoding="utf-8"?>
<!-- Generator: Adobe Illustrator 19.1.0, SVG Export Plug-In . SVG Version: 6.00 Build 0)  -->
<svg version="1.1" xmlns="http://www.w3.org/2000/svg" xmlns:xlink="http://www.w3.org/1999/xlink" x="0px" y="0px"
	 viewBox="0 0 1000 500" style="enable-background:new 0 0 1000 500;" xml:space="preserve">
<style type="text/css">
	.st0 {
		fill:#80ADA0;
	}
	
	.st1{
		fill:none;
		stroke:#FECDC7;
		stroke-miterlimit:10;
		
		stroke-dasharray: 1000;
		stroke-dashoffset: 1000;

		-webkit-animation: outline 6s forwards;
		animation: outline 6s forwards;
	}

	.l {
		stroke-width: 2.0;
	}
	
	.st2{
		fill:#80ADA0;
		stroke:#FECDC7;
		stroke-miterlimit:10;

		stroke-width: 1.5;

		stroke-dasharray: 1000;
		stroke-dashoffset: 1000;

		-webkit-animation: outline 10s forwards;
		animation: outline 10s forwards;
	}
	
	.st3{
		fill:#1A153E;

		-webkit-animation: title 17s forwards;
		animation: title 17s forwards;
	}

	@-webkit-keyframes title {
		from { fill: none; }
		to { fill:#1A153E; }
	}

	@keyframes title {
		from { fill: none; }
		to { fill:#1A153E; }
	}


	@-webkit-keyframes outline {
		to { stroke-dashoffset: 0;}
	}

	@keyframes outline {
		to { stroke-dashoffset: 0; }
	}

	.line1 {
		animation-delay: 2.0s;
	}

	.line2 {
		animation-delay: 3.0s;
	}

	.line3 {
		animation-delay: 3.4s;
	}

	.line4 {
		animation-delay: 4.0s;
	}

	.line5 {
		animation-delay: 4.8s;
	}

	.line6 {
		animation-delay: 5.4s;
	}

	.line7 {
		animation-delay: 7.0s;
	}

	.line8 {
		animation-delay: 7.6s;
	}

	.line9 {
		animation-delay: 7.8s;
	}


	.k1 {
		animation-delay: 2.2s;
	}

	.k2 {
		animation-delay: 3.0s;
	}

	.k3 {
		animation-delay: 3.5s;
	}

	.k4 {
		animation-delay: 4.0s;
	}

	.k5 {
		animation-delay: 3.0s;
	}

	.k7 {
		animation-delay: 6.0s;
	}

	.k8 {
		animation-delay: 6.5s;
	}

	.k10 {
		animation-delay: 7.0s;
	}


<!-- 	RightKnobs -->
	.k6 {
		animation-delay: 2.0s;
	}

	.k9 {
		animation-delay: 2.4s;
	}

	.k11 {
		animation-delay: 2.6s;
	}

	.k12 {
		animation-delay: 2.8s;
	}




</style>
<!-- <g id="Layer_1">
	<rect x="75" y="-1" class="st0" width="848.6" height="500"/>
</g> -->
<g id="lines">
	<line class="st1 line1" x1="415.6" y1="18.7" x2="570.6" y2="18.7"/>
	<line class="st1 line2" x1="602.9" y1="127.6" x2="566.7" y2="155.4"/>
	<line class="st1 line3" x1="556.8" y1="166.3" x2="549.3" y2="216.3"/>
	<line class="st1 line4" x1="539.6" y1="225.8" x2="449.4" y2="225.8"/>
	<line class="st1 line5" x1="439.8" y1="218" x2="430.1" y2="164"/>
	<line class="st1 line6" x1="405.9" y1="159.3" x2="185.4" y2="236.5"/>
	<line class="st1 line7" x1="176.3" y1="254.1" x2="164.3" y2="308.4"/>
	<line class="st1 line8" x1="164.3" y1="311.3" x2="176.3" y2="338.7"/>
	<line class="st1 line9" x1="195" y1="336.4" x2="195" y2="1800.1"/>
</g>
<g id="second_lines">
	<line class="st1 line1" x1="838.5" y1="237.4" x2="776" y2="240.7"/>
	<line class="st1 line2" x1="769.2" y1="267.7" x2="821.6" y2="304.9"/>
	<line class="st1 line3" x1="821.6" y1="321.8" x2="787" y2="331.5"/>
	<line class="st1 line4" x1="784.9" y1="348.3" x2="821.6" y2="365.2"/>
	<line class="st1 line5" x1="831.9" y1="380.5" x2="831.9" y2="1800"/>
</g>
<g id="computer">
	
	<ellipse transform="matrix(5.461167e-03 -1 1 5.461167e-03 334.9936 492.7744)" class="st1 l" cx="415.2" cy="78" rx="59.2" ry="59.9"/>
	<path class="st1 " d="M399.9,78c0,0-0.6-4,1.8-6.5l-27.6-16.3c0,0-7.5,10.3-5.9,23.8L399.9,78z"/>
	<path class="st1 " d="M422,92c0,0-3.2,2.4-6.6,1.6l-1,32c0,0,12.7,1.7,23.7-6.2L422,92z"/>
	<path class="st1 " d="M423,65.8c0,0,3.7,1.5,4.7,4.9l28.1-15.3c0,0-5-11.8-17.4-17.3L423,65.8z"/>
	<path class="st1 " d="M554.7,78c0,0-0.6-4,1.8-6.5l-27.6-16.3c0,0-7.5,10.3-5.9,23.8L554.7,78z"/>
	<path class="st1 " d="M576.8,92c0,0-3.2,2.4-6.6,1.6l-1,32c0,0,12.7,1.7,23.7-6.2L576.8,92z"/>
	<path class="st1 " d="M577.8,65.8c0,0,3.7,1.5,4.7,4.9l28.1-15.3c0,0-5-11.8-17.4-17.3L577.8,65.8z"/>
	
	<ellipse transform="matrix(5.461167e-03 -1 1 5.461167e-03 489.1471 647.7722)" class="st1 l" cx="570.2" cy="78" rx="59.2" ry="59.9"/>
	
	<ellipse transform="matrix(5.461167e-03 -1 1 5.461167e-03 641.4004 1036.8639)" class="st1 l" cx="842" cy="196" rx="41.4" ry="41.9"/>
	<path class="st1 " d="M831.8,197.2c0,0-0.4-2.7,1.2-4.5l-18.8-11.1c0,0-5.1,7-4,16.2L831.8,197.2z"/>
	<path class="st1 " d="M846.9,206.7c0,0-2.2,1.7-4.5,1.1l-0.7,21.8c0,0,8.6,1.1,16.1-4.2L846.9,206.7z"/>
	<path class="st1 " d="M847.5,188.9c0,0,2.5,1,3.2,3.3l19.1-10.4c0,0-3.4-8-11.8-11.8L847.5,188.9z"/>
</g>
<g id="knobs">
	
		<ellipse transform="matrix(5.461167e-03 -1 1 5.461167e-03 399.2137 739.4001)" class="st2 k1" cx="571.3" cy="169" rx="14.3" ry="14.5"/>
	
		<ellipse transform="matrix(5.461167e-03 -1 1 5.461167e-03 245.2812 584.6246)" class="st2 k4" cx="416.6" cy="169" rx="14.3" ry="14.5"/>
	
		<ellipse transform="matrix(5.461167e-03 -1 1 5.461167e-03 320.4186 754.6736)" class="st2 k2" cx="539.6" cy="216.3" rx="9.6" ry="9.7"/>
	
		<ellipse transform="matrix(5.461167e-03 -1 1 5.461167e-03 230.7174 664.4811)" class="st2 k3" cx="449.4" cy="216.3" rx="9.6" ry="9.7"/>
		<rect x="472.9" y="176.5" class="st2 k5" width="44.6" height="23.5"/>
	
		<ellipse transform="matrix(5.461167e-03 -1 1 5.461167e-03 516.6755 1029.5049)" class="st2 k6" cx="775.9" cy="255" rx="14.3" ry="14.5"/>
	
		<ellipse transform="matrix(5.461167e-03 -1 1 5.461167e-03 -60.8152 438.8518)" class="st2 k7" cx="190.2" cy="250" rx="14.3" ry="14.5"/>
	
		<ellipse transform="matrix(5.461167e-03 -1 1 5.461167e-03 -154.614 461.2774)" class="st2 k8" cx="154.6" cy="308.4" rx="9.6" ry="9.7"/>
	
		<ellipse transform="matrix(5.461167e-03 -1 1 5.461167e-03 499.2464 1128.7183)" class="st2 k9" cx="817.1" cy="313.4" rx="9.6" ry="9.7"/>
	
		<ellipse transform="matrix(5.461167e-03 -1 1 5.461167e-03 -151.0645 518.9913)" class="st2 k10" cx="185.4" cy="335.4" rx="9.6" ry="9.7"/>
	
		<ellipse transform="matrix(5.461167e-03 -1 1 5.461167e-03 445.6557 1128.9792)" class="st2 k11" cx="790.4" cy="340.4" rx="9.6" ry="9.7"/>
	
		<ellipse transform="matrix(5.461167e-03 -1 1 5.461167e-03 433.2692 1194.3362)" class="st2 k12" cx="817.1" cy="379.3" rx="14.8" ry="15"/>
</g>
<g id="title">
	<g>
		<path class="st3" d="M433.2,323.5h-4.3V322h10.5v1.6H435v12.6h-1.8V323.5z"/>
		<path class="st3" d="M440.7,321.2h1.8v6.3h0c0.3-0.5,0.8-1,1.3-1.3c0.5-0.3,1.2-0.5,1.9-0.5c1.4,0,3.5,0.8,3.5,4.3v6h-1.8v-5.8
			c0-1.6-0.6-3-2.4-3c-1.2,0-2.1,0.8-2.5,1.8c-0.1,0.3-0.1,0.5-0.1,0.9v6.1h-1.8V321.2z"/>
		<path class="st3" d="M453.4,331.4c0,2.5,1.6,3.5,3.5,3.5c1.3,0,2.1-0.2,2.8-0.5l0.3,1.3c-0.7,0.3-1.8,0.6-3.4,0.6
			c-3.1,0-5-2.1-5-5.1s1.8-5.5,4.8-5.5c3.3,0,4.2,2.9,4.2,4.8c0,0.4,0,0.7-0.1,0.9H453.4z M458.8,330.1c0-1.2-0.5-3-2.6-3
			c-1.9,0-2.7,1.7-2.8,3H458.8z"/>
		<path class="st3" d="M468.1,326l1.3,5.2c0.3,1.1,0.6,2.2,0.8,3.2h0.1c0.2-1,0.6-2.1,0.9-3.2l1.7-5.2h1.6l1.6,5.1
			c0.4,1.2,0.7,2.3,0.9,3.3h0.1c0.2-1,0.4-2.1,0.8-3.3l1.4-5.1h1.8l-3.3,10.2H476l-1.6-4.9c-0.4-1.1-0.7-2.1-0.9-3.3h0
			c-0.3,1.2-0.6,2.3-0.9,3.4l-1.6,4.8h-1.7l-3.1-10.2H468.1z"/>
		<path class="st3" d="M483.6,331.4c0,2.5,1.6,3.5,3.5,3.5c1.3,0,2.1-0.2,2.8-0.5l0.3,1.3c-0.7,0.3-1.8,0.6-3.4,0.6
			c-3.1,0-5-2.1-5-5.1s1.8-5.5,4.8-5.5c3.3,0,4.2,2.9,4.2,4.8c0,0.4,0,0.7-0.1,0.9H483.6z M489,330.1c0-1.2-0.5-3-2.6-3
			c-1.9,0-2.7,1.7-2.8,3H489z"/>
		<path class="st3" d="M493,336.1c0-0.7,0.1-1.7,0.1-2.6v-12.3h1.8v6.4h0c0.7-1.1,1.8-1.9,3.5-1.9c2.5,0,4.3,2.1,4.3,5.2
			c0,3.6-2.3,5.4-4.6,5.4c-1.5,0-2.6-0.6-3.4-1.9h-0.1l-0.1,1.7H493z M494.9,332.1c0,0.2,0,0.5,0.1,0.7c0.4,1.3,1.4,2.2,2.8,2.2
			c1.9,0,3.1-1.6,3.1-3.9c0-2-1.1-3.8-3-3.8c-1.3,0-2.4,0.9-2.8,2.3c0,0.2-0.1,0.5-0.1,0.8V332.1z"/>
		<path class="st3" d="M505,329.3c0-1.3,0-2.4-0.1-3.3h1.7l0.1,1.7h0c0.8-1.2,2-2,3.6-2c2.5,0,4.3,2.1,4.3,5.2
			c0,3.7-2.2,5.5-4.6,5.5c-1.3,0-2.5-0.6-3.1-1.6h0v5.5H505V329.3z M506.9,332c0,0.3,0,0.5,0.1,0.8c0.3,1.3,1.4,2.2,2.8,2.2
			c2,0,3.1-1.6,3.1-3.9c0-2-1.1-3.8-3-3.8c-1.3,0-2.4,0.9-2.8,2.3c-0.1,0.2-0.1,0.5-0.1,0.8V332z"/>
		<path class="st3" d="M522.6,336.1l-0.1-1.3h-0.1c-0.6,0.8-1.7,1.5-3.1,1.5c-2.1,0-3.1-1.4-3.1-2.9c0-2.5,2.2-3.8,6.1-3.8v-0.2
			c0-0.8-0.2-2.4-2.3-2.4c-0.9,0-1.9,0.3-2.6,0.8l-0.4-1.2c0.8-0.5,2.1-0.9,3.3-0.9c3.1,0,3.9,2.1,3.9,4.2v3.8c0,0.9,0,1.7,0.2,2.4
			H522.6z M522.3,331c-2,0-4.3,0.3-4.3,2.3c0,1.2,0.8,1.8,1.7,1.8c1.3,0,2.2-0.8,2.5-1.7c0.1-0.2,0.1-0.4,0.1-0.6V331z"/>
		<path class="st3" d="M535.9,326c0,0.7-0.1,1.6-0.1,2.8v5.9c0,2.3-0.5,3.8-1.4,4.6c-1,0.9-2.4,1.2-3.7,1.2c-1.2,0-2.6-0.3-3.4-0.8
			l0.5-1.4c0.7,0.4,1.7,0.8,3,0.8c1.9,0,3.3-1,3.3-3.5v-1.1h0c-0.6,0.9-1.7,1.7-3.2,1.7c-2.5,0-4.3-2.1-4.3-5c0-3.4,2.2-5.4,4.6-5.4
			c1.8,0,2.7,0.9,3.2,1.8h0l0.1-1.5H535.9z M534,330c0-0.3,0-0.6-0.1-0.8c-0.3-1.1-1.2-2-2.6-2c-1.8,0-3,1.5-3,3.8c0,2,1,3.7,3,3.7
			c1.1,0,2.2-0.7,2.6-1.9c0.1-0.3,0.1-0.7,0.1-1V330z"/>
		<path class="st3" d="M539.9,331.4c0,2.5,1.6,3.5,3.5,3.5c1.3,0,2.1-0.2,2.8-0.5l0.3,1.3c-0.7,0.3-1.8,0.6-3.4,0.6
			c-3.1,0-5-2.1-5-5.1s1.8-5.5,4.8-5.5c3.3,0,4.2,2.9,4.2,4.8c0,0.4,0,0.7-0.1,0.9H539.9z M545.3,330.1c0-1.2-0.5-3-2.6-3
			c-1.9,0-2.7,1.7-2.8,3H545.3z"/>
		<path class="st3" d="M563,331c0,3.8-2.6,5.4-5.1,5.4c-2.8,0-4.9-2-4.9-5.2c0-3.4,2.2-5.4,5-5.4C561,325.8,563,327.9,563,331z
			 M555,331.1c0,2.2,1.3,3.9,3.1,3.9c1.8,0,3.1-1.7,3.1-3.9c0-1.7-0.9-3.9-3-3.9S555,329.2,555,331.1z"/>
		<path class="st3" d="M565.5,336.1v-8.8h-1.4V326h1.4v-0.5c0-1.4,0.3-2.7,1.2-3.5c0.7-0.7,1.6-0.9,2.5-0.9c0.7,0,1.2,0.1,1.6,0.3
			l-0.3,1.4c-0.3-0.1-0.7-0.2-1.2-0.2c-1.6,0-2,1.4-2,2.9v0.5h2.5v1.4h-2.5v8.8H565.5z"/>
	</g>
	<g>
		<path class="st3" d="M324.6,372.6H312v11.7h14v3.5h-18.2v-32.4h17.5v3.5H312v10.2h12.6V372.6z"/>
		<path class="st3" d="M341.1,355.9c2.1-0.4,5.1-0.7,8-0.7c4.5,0,7.3,0.8,9.4,2.6c1.6,1.4,2.5,3.6,2.5,6.1c0,4.3-2.7,7.1-6.1,8.3
			v0.1c2.5,0.9,4,3.2,4.8,6.5c1.1,4.5,1.8,7.6,2.5,8.9h-4.3c-0.5-0.9-1.2-3.7-2.2-7.7c-1-4.5-2.7-6.1-6.5-6.3h-3.9v14h-4.2V355.9z
			 M345.3,370.6h4.3c4.5,0,7.3-2.4,7.3-6.1c0-4.2-3-6-7.4-6c-2,0-3.5,0.2-4.1,0.4V370.6z"/>
		<path class="st3" d="M380.7,355.5v32.4h-4.2v-32.4H380.7z"/>
		<path class="st3" d="M397.6,355.5h4.2v15.6h0.1c0.9-1.2,1.7-2.4,2.5-3.5l9.9-12.1h5.2l-11.7,13.7l12.6,18.6h-4.9l-10.7-15.9
			l-3.1,3.6v12.3h-4.2V355.5z"/>
		<path class="st3" d="M438.9,377.6l-3.4,10.2h-4.3l11-32.4h5l11,32.4h-4.5l-3.5-10.2H438.9z M449.5,374.4l-3.2-9.3
			c-0.7-2.1-1.2-4-1.7-5.9h-0.1c-0.5,1.9-1,3.9-1.6,5.9l-3.2,9.4H449.5z"/>
		<path class="st3" d="M496,387.8l-8.2-32.4h4.4l3.8,16.4c1,4,1.8,8.1,2.4,11.2h0.1c0.5-3.2,1.5-7.1,2.6-11.2l4.3-16.3h4.4l3.9,16.4
			c0.9,3.8,1.8,7.7,2.3,11.1h0.1c0.7-3.6,1.6-7.2,2.6-11.2l4.3-16.3h4.3l-9.2,32.4h-4.4l-4.1-16.8c-1-4.1-1.7-7.3-2.1-10.6h-0.1
			c-0.6,3.2-1.3,6.4-2.5,10.6l-4.6,16.8H496z"/>
		<path class="st3" d="M545.1,355.5v32.4h-4.2v-32.4H545.1z"/>
		<path class="st3" d="M562,355.5h4.2v28.9H580v3.5h-18V355.5z"/>
		<path class="st3" d="M615,386.8c-1.5,0.8-4.6,1.5-8.5,1.5c-9.1,0-16-5.8-16-16.4c0-10.1,6.9-17,16.9-17c4,0,6.6,0.9,7.7,1.4
			l-1,3.4c-1.6-0.8-3.8-1.3-6.5-1.3c-7.6,0-12.6,4.8-12.6,13.3c0,7.9,4.6,13,12.4,13c2.5,0,5.1-0.5,6.8-1.3L615,386.8z"/>
		<path class="st3" d="M656.4,371.3c0,11.1-6.8,17-15,17c-8.5,0-14.5-6.6-14.5-16.4c0-10.3,6.4-17,15-17
			C650.7,354.9,656.4,361.7,656.4,371.3z M631.3,371.8c0,6.9,3.7,13.1,10.3,13.1c6.6,0,10.4-6.1,10.4-13.4c0-6.4-3.4-13.2-10.3-13.2
			C634.8,358.3,631.3,364.7,631.3,371.8z"/>
		<path class="st3" d="M687.9,387.8l-4.1-7.2c-1.7-2.7-2.7-4.5-3.7-6.4h-0.1c-0.9,1.9-1.8,3.6-3.5,6.4l-3.9,7.1h-4.8l9.9-16.4
			l-9.5-16h4.8l4.3,7.6c1.2,2.1,2.1,3.7,3,5.5h0.1c0.9-1.9,1.7-3.4,2.9-5.5l4.4-7.6h4.8l-9.8,15.7l10.1,16.6H687.9z"/>
	</g>
</g>
</svg>
