<?xml version="1.0" encoding="utf-8"?>
<!-- Generator: Adobe Illustrator 19.1.0, SVG Export Plug-In . SVG Version: 6.00 Build 0)  -->
<svg version="1.1" xmlns="http://www.w3.org/2000/svg" xmlns:xlink="http://www.w3.org/1999/xlink" x="0px" y="0px"
	 viewBox="0 0 1000 600" style="enable-background:new 0 0 1000 600;" xml:space="preserve">
<style type="text/css">
	
	.st0{
		fill:none;
		stroke:#000000;
		stroke-miterlimit:10;

		stroke-dasharray: 1000;
		stroke-dashoffset: 1000;

		-webkit-animation: outline 6s forwards;
		animation: outline 6s forwards;
	}

	.fill {
		fill:none;
		-webkit-animation: filling 2s forwards;
		animation: filling 2s forwards;
	}

	@-webkit-keyframes outline {
		to { stroke-dashoffset: 0;}
	}

	@keyframes outline {
		to { stroke-dashoffset: 0; }
	}

	@-webkit-keyframes filling {
		from { fill: none; }
		to { fill: #000;}
	}

	@keyframes filling {
		from { fill:none; }
		to { fill: #000; }
	}



	.o2 {
		animation-delay: 0.2s;
	}

	.o3 {
		animation-delay: 0.4s;
	}

	.o4 {
		animation-delay: 0.6s;
	}

	.o5 {
		animation-delay: 0.8s;
	}

	.o6 {
		animation-delay: 1.0s;
	}

	.o7 {
		animation-delay: 1.2s;
	}

	.o8 {
		animation-delay: 1.4s;
	}

	.o9 {
		animation-delay: 1.6s;
	}

	.o10 {
		animation-delay: 1.8s;
	}

	.o11 {
		animation-delay: 2.0s;
	}

	.o12 {
		animation-delay: 2.2s;
	}

	.o13 {
		animation-delay: 2.4s;
	}

	.o14 {
		animation-delay: 2.6s;
	}

	.o15 {
		animation-delay: 2.8s;
	}


	.l1 {
		animation-delay: 0.4s;
	}

	.l2 {
		animation-delay: 0.6s;
	}

	.l3 {
		animation-delay: 0.8s;
	}

	.l4 {
		animation-delay: 1.0s;
	}

	.l5 {
		animation-delay: 1.2s;
	}

	.l6 {
		animation-delay: 1.4s;
	}

	.l7 {
		animation-delay: 1.6s;
	}

	.l8 {
		animation-delay: 1.8s;
	}

	.l9 {
		animation-delay: 2.0s;
	}

	.l10 {
		animation-delay: 2.2s;
	}

	.l11 {
		animation-delay: 2.4s;
	}

	.l12 {
		animation-delay: 2.6s;
	}

	.l13 {
		animation-delay: 2.8s;
	}

	.l14 {
		animation-delay: 3.0s;
	}

	.l15 {
		animation-delay: 3.2s;
	}
</style>
<script>
	
	$(document).ready(function() {
	  //variable for the 'stroke-dashoffset' unit
	  var $dashOffset = $(".st0").css("stroke-dashoffset");
	  //on a scroll event - execute function
	  $(window).scroll(function() {
	    //calculate how far down the page the user is 
	    var $percentageComplete = (($(window).scrollTop() / ($("html").height() - $(window).height())) * 100);
	    //convert dashoffset pixel value to interger
	  //  var $newUnit = parseInt($dashOffset, 10);
	    //get the value to be subtracted from the 'stroke-dashoffset'
	    //var $offsetUnit = $percentageComplete * ($newUnit / 100);
	    //set the new value of the dashoffset to create the drawing effect
		if ($(window).scrollTop() > $("#frame").offset().top - 200 ) {
	    	$(".st0").css({"animation" : "dash 5s linear forwards","-webkit-animation" : "dash 15s linear forwards" });
		
		}
		
	  });

});

</script>
<g id="Layer_1">
</g>
<g id="outline">
	<g>
		<path class="st0 o1" d="M148.1,279h25.4v5.6h-19V301h17.3v5.6h-17.3v13.2h-6.4V279z"/>
		<path class="st0 o2" d="M193.4,279h25.9v5.6h-19.6v15.8h17.3v5.5h-17.3v8.3h20.4v5.6h-26.8V279z"/>
		<path class="st0 o3" d="M254.9,278.5h0.7l17.9,41.2h-6.6l-2.3-5.8h-18.7l-2.3,5.8h-6.1L254.9,278.5z M262.3,308.7l-5.1-12.7
			c-0.3-0.6-0.5-1.2-0.8-2c-0.2-0.7-0.4-1.3-0.6-2c-0.2-0.7-0.4-1.4-0.7-2.2c-0.2,0.7-0.4,1.4-0.6,2.2c-0.2,0.6-0.4,1.3-0.7,2
			c-0.2,0.7-0.5,1.4-0.7,2l-5.1,12.7H262.3z"/>
		<path class="st0 o4" d="M296.2,284.5h-12.1V279h30.6v5.6h-12.1v35.2h-6.4V284.5z"/>
		<path class="st0 o5" d="M348.8,320.3c-2.2,0-4.3-0.3-6.2-0.9c-1.9-0.6-3.5-1.5-4.9-2.8c-1.4-1.2-2.5-2.8-3.3-4.6
			c-0.8-1.9-1.2-4-1.2-6.5V279h6.4v26.1c0,3.3,0.8,5.7,2.3,7.3c1.6,1.5,3.8,2.3,6.8,2.3c3,0,5.3-0.8,6.8-2.3
			c1.6-1.5,2.4-3.9,2.4-7.3V279h6.4v26.5c0,2.5-0.4,4.6-1.2,6.5c-0.8,1.9-1.9,3.4-3.3,4.6c-1.4,1.2-3,2.2-4.9,2.8
			C353,320,351,320.3,348.8,320.3z"/>
		<path class="st0 o6" d="M414.2,319.8h-7.3l-7.3-10.7c-0.6,0.1-1.1,0.1-1.7,0.2c-0.6,0-1.2,0.1-1.7,0.1h-3.8v10.5h-6.4V279h10.2
			c2.8,0,5.3,0.4,7.5,1.1c2.2,0.7,4,1.7,5.5,3.1s2.6,2.9,3.4,4.8c0.8,1.9,1.2,4,1.2,6.3c0,3.2-0.7,5.8-2.1,8s-3.4,3.8-6.1,5
			L414.2,319.8z M395.9,303.8c4,0,6.9-0.8,8.7-2.5c1.8-1.7,2.6-4,2.6-7.1c0-3.1-0.9-5.5-2.7-7.1c-1.8-1.7-4.7-2.5-8.7-2.5h-3.6v19.3
			H395.9z"/>
		<path class="st0 o7" d="M434.2,279h25.9v5.6h-19.6v15.8h17.3v5.5h-17.3v8.3H461v5.6h-26.8V279z"/>
		<path class="st0 o8" d="M481.4,279h11.2c3.3,0,6.3,0.5,8.9,1.5c2.7,1,5,2.4,6.9,4.1c1.9,1.8,3.4,3.9,4.4,6.5c1,2.5,1.6,5.3,1.6,8.3
			c0,3.1-0.5,5.9-1.6,8.4c-1,2.5-2.5,4.6-4.4,6.4c-1.9,1.8-4.2,3.2-6.9,4.1c-2.7,1-5.7,1.5-8.9,1.5h-11.2V279z M492.2,314.2
			c2.6,0,4.9-0.4,6.9-1.1c2-0.7,3.6-1.7,4.9-3.1c1.3-1.3,2.3-2.9,2.9-4.7c0.6-1.8,0.9-3.8,0.9-6s-0.3-4.1-0.9-6
			c-0.6-1.8-1.6-3.4-2.9-4.7s-2.9-2.3-4.9-3.1c-2-0.7-4.3-1.1-6.9-1.1h-4.4v29.6H492.2z"/>
		<path class="st0 o9" d="M558.3,279h10.3c2.8,0,5.3,0.4,7.5,1.1c2.2,0.7,4,1.8,5.5,3.1c1.5,1.3,2.6,3,3.4,4.9c0.8,1.9,1.1,4.1,1.1,6.4
			s-0.4,4.5-1.2,6.4c-0.8,1.9-1.9,3.5-3.4,4.9c-1.5,1.3-3.3,2.4-5.5,3.1c-2.2,0.7-4.7,1.1-7.5,1.1h-3.9v9.7h-6.4V279z M568.4,304.5
			c4,0,6.9-0.9,8.6-2.7c1.8-1.8,2.6-4.2,2.6-7.3c0-3.1-0.9-5.6-2.6-7.3c-1.8-1.8-4.6-2.6-8.6-2.6h-3.7v19.9H568.4z"/>
		<path class="st0 o10" d="M634.1,319.8h-7.3l-7.3-10.7c-0.6,0.1-1.1,0.1-1.7,0.2c-0.6,0-1.2,0.1-1.7,0.1h-3.8v10.5h-6.4V279h10.2
			c2.8,0,5.3,0.4,7.5,1.1c2.2,0.7,4,1.7,5.5,3.1s2.6,2.9,3.4,4.8c0.8,1.9,1.2,4,1.2,6.3c0,3.2-0.7,5.8-2.1,8s-3.4,3.8-6.1,5
			L634.1,319.8z M615.8,303.8c4,0,6.9-0.8,8.7-2.5c1.8-1.7,2.6-4,2.6-7.1c0-3.1-0.9-5.5-2.7-7.1c-1.8-1.7-4.7-2.5-8.7-2.5h-3.6v19.3
			H615.8z"/>
		<path class="st0 o11" d="M673.4,320.3c-2.9,0-5.7-0.5-8.2-1.6c-2.6-1-4.8-2.5-6.7-4.3c-1.9-1.9-3.4-4.1-4.5-6.6
			c-1.1-2.6-1.7-5.4-1.7-8.4c0-3,0.5-5.8,1.7-8.4c1.1-2.6,2.6-4.8,4.5-6.6c1.9-1.9,4.1-3.3,6.7-4.3c2.6-1,5.3-1.6,8.2-1.6
			c2.9,0,5.6,0.5,8.2,1.6c2.5,1,4.8,2.5,6.7,4.3c1.9,1.9,3.4,4.1,4.5,6.6c1.1,2.6,1.7,5.4,1.7,8.4c0,3-0.6,5.8-1.7,8.4
			c-1.1,2.6-2.6,4.8-4.5,6.6c-1.9,1.9-4.1,3.3-6.7,4.3C679,319.8,676.3,320.3,673.4,320.3z M673.4,314.6c2.1,0,4.1-0.4,5.8-1.2
			c1.8-0.8,3.3-1.8,4.6-3.2c1.3-1.4,2.3-3,3-4.8c0.7-1.9,1.1-3.9,1.1-6s-0.4-4.2-1.1-6c-0.7-1.9-1.7-3.5-3-4.8s-2.8-2.4-4.6-3.2
			c-1.8-0.8-3.7-1.2-5.8-1.2c-2.1,0-4.1,0.4-5.9,1.2c-1.8,0.8-3.3,1.9-4.6,3.2c-1.3,1.4-2.3,3-3,4.8c-0.7,1.9-1.1,3.9-1.1,6
			s0.4,4.2,1.1,6s1.7,3.5,3,4.8c1.3,1.4,2.8,2.4,4.6,3.2S671.2,314.6,673.4,314.6z"/>
		<path class="st0 o12" d="M720.9,320.3c-1.5,0-2.9-0.2-4.1-0.5c-1.2-0.4-2.3-0.9-3.2-1.5c-0.9-0.6-1.8-1.4-2.5-2.2
			c-0.7-0.8-1.3-1.7-1.8-2.7l5.2-3.2c0.7,1.3,1.5,2.3,2.5,3.1c0.9,0.8,2.1,1.2,3.7,1.2c1.7,0,3.1-0.5,4.1-1.4c1-0.9,1.5-2.6,1.5-5
			V279h6.4v29.4c0,2-0.3,3.8-0.9,5.3c-0.6,1.5-1.4,2.7-2.4,3.7c-1,1-2.3,1.7-3.7,2.2C724.2,320.1,722.6,320.3,720.9,320.3z"/>
		<path class="st0 o13" d="M754.2,279h25.9v5.6h-19.6v15.8h17.3v5.5h-17.3v8.3h20.4v5.6h-26.8V279z"/>
		<path class="st0 o14" d="M820.2,320.3c-2.9,0-5.6-0.5-8.2-1.6c-2.6-1-4.8-2.5-6.7-4.3s-3.4-4.1-4.5-6.6c-1.1-2.6-1.7-5.4-1.7-8.4
			c0-3,0.5-5.8,1.7-8.4c1.1-2.6,2.6-4.8,4.5-6.6c1.9-1.8,4.1-3.3,6.7-4.3c2.6-1,5.3-1.6,8.2-1.6c7.3,0,12.7,2.7,16.3,8.1l-4.9,3.5
			c-1.2-1.8-2.7-3.2-4.6-4.3c-1.9-1.1-4.2-1.6-6.9-1.6c-2.1,0-4.1,0.4-5.8,1.1c-1.8,0.8-3.3,1.8-4.6,3.2c-1.3,1.4-2.3,3-3,4.8
			c-0.7,1.9-1.1,3.9-1.1,6s0.4,4.2,1.1,6s1.7,3.5,3,4.8c1.3,1.4,2.8,2.4,4.6,3.2c1.8,0.8,3.7,1.2,5.8,1.2c2.8,0,5.2-0.6,7.2-1.7
			c1.9-1.2,3.6-2.7,4.9-4.7l4.9,3.4c-1.8,2.7-4.1,4.9-6.9,6.4C827.4,319.5,824,320.3,820.2,320.3z"/>
		<path class="st0 o15" d="M865.1,284.5H853V279h30.6v5.6h-12.1v35.2h-6.4V284.5z"/>
	</g>
</g>
<g id="fill">
	<g>
		<path class="fill l1" d="M148.1,279h25.4v5.6h-19V301h17.3v5.6h-17.3v13.2h-6.4V279z"/>
		<path class="fill l2" d="M193.4,279h25.9v5.6h-19.6v15.8h17.3v5.5h-17.3v8.3h20.4v5.6h-26.8V279z"/>
		<path class="fill l3" d="M254.9,278.5h0.7l17.9,41.2h-6.6l-2.3-5.8h-18.7l-2.3,5.8h-6.1L254.9,278.5z M262.3,308.7l-5.1-12.7
			c-0.3-0.6-0.5-1.2-0.8-2c-0.2-0.7-0.4-1.3-0.6-2c-0.2-0.7-0.4-1.4-0.7-2.2c-0.2,0.7-0.4,1.4-0.6,2.2c-0.2,0.6-0.4,1.3-0.7,2
			c-0.2,0.7-0.5,1.4-0.7,2l-5.1,12.7H262.3z"/>
		<path class="fill l4" d="M296.2,284.5h-12.1V279h30.6v5.6h-12.1v35.2h-6.4V284.5z"/>
		<path class="fill l5" d="M348.8,320.3c-2.2,0-4.3-0.3-6.2-0.9c-1.9-0.6-3.5-1.5-4.9-2.8c-1.4-1.2-2.5-2.8-3.3-4.6c-0.8-1.9-1.2-4-1.2-6.5V279h6.4
			v26.1c0,3.3,0.8,5.7,2.3,7.3c1.6,1.5,3.8,2.3,6.8,2.3c3,0,5.3-0.8,6.8-2.3c1.6-1.5,2.4-3.9,2.4-7.3V279h6.4v26.5
			c0,2.5-0.4,4.6-1.2,6.5c-0.8,1.9-1.9,3.4-3.3,4.6c-1.4,1.2-3,2.2-4.9,2.8C353,320,351,320.3,348.8,320.3z"/>
		<path class="fill l6" d="M414.2,319.8h-7.3l-7.3-10.7c-0.6,0.1-1.1,0.1-1.7,0.2c-0.6,0-1.2,0.1-1.7,0.1h-3.8v10.5h-6.4V279h10.2
			c2.8,0,5.3,0.4,7.5,1.1c2.2,0.7,4,1.7,5.5,3.1s2.6,2.9,3.4,4.8c0.8,1.9,1.2,4,1.2,6.3c0,3.2-0.7,5.8-2.1,8s-3.4,3.8-6.1,5
			L414.2,319.8z M395.9,303.8c4,0,6.9-0.8,8.7-2.5c1.8-1.7,2.6-4,2.6-7.1c0-3.1-0.9-5.5-2.7-7.1c-1.8-1.7-4.7-2.5-8.7-2.5h-3.6v19.3
			H395.9z"/>
		<path class="fill l7" d="M434.2,279h25.9v5.6h-19.6v15.8h17.3v5.5h-17.3v8.3H461v5.6h-26.8V279z"/>
		<path class="fill l8" d="M481.4,279h11.2c3.3,0,6.3,0.5,8.9,1.5c2.7,1,5,2.4,6.9,4.1c1.9,1.8,3.4,3.9,4.4,6.5c1,2.5,1.6,5.3,1.6,8.3
			c0,3.1-0.5,5.9-1.6,8.4c-1,2.5-2.5,4.6-4.4,6.4c-1.9,1.8-4.2,3.2-6.9,4.1c-2.7,1-5.7,1.5-8.9,1.5h-11.2V279z M492.2,314.2
			c2.6,0,4.9-0.4,6.9-1.1c2-0.7,3.6-1.7,4.9-3.1c1.3-1.3,2.3-2.9,2.9-4.7c0.6-1.8,0.9-3.8,0.9-6s-0.3-4.1-0.9-6
			c-0.6-1.8-1.6-3.4-2.9-4.7s-2.9-2.3-4.9-3.1c-2-0.7-4.3-1.1-6.9-1.1h-4.4v29.6H492.2z"/>
		<path class="fill l9" d="M558.3,279h10.3c2.8,0,5.3,0.4,7.5,1.1c2.2,0.7,4,1.8,5.5,3.1c1.5,1.3,2.6,3,3.4,4.9c0.8,1.9,1.1,4.1,1.1,6.4
			s-0.4,4.5-1.2,6.4c-0.8,1.9-1.9,3.5-3.4,4.9c-1.5,1.3-3.3,2.4-5.5,3.1c-2.2,0.7-4.7,1.1-7.5,1.1h-3.9v9.7h-6.4V279z M568.4,304.5
			c4,0,6.9-0.9,8.6-2.7c1.8-1.8,2.6-4.2,2.6-7.3c0-3.1-0.9-5.6-2.6-7.3c-1.8-1.8-4.6-2.6-8.6-2.6h-3.7v19.9H568.4z"/>
		<path class="fill l10" d="M634.1,319.8h-7.3l-7.3-10.7c-0.6,0.1-1.1,0.1-1.7,0.2c-0.6,0-1.2,0.1-1.7,0.1h-3.8v10.5h-6.4V279h10.2
			c2.8,0,5.3,0.4,7.5,1.1c2.2,0.7,4,1.7,5.5,3.1s2.6,2.9,3.4,4.8c0.8,1.9,1.2,4,1.2,6.3c0,3.2-0.7,5.8-2.1,8s-3.4,3.8-6.1,5
			L634.1,319.8z M615.8,303.8c4,0,6.9-0.8,8.7-2.5c1.8-1.7,2.6-4,2.6-7.1c0-3.1-0.9-5.5-2.7-7.1c-1.8-1.7-4.7-2.5-8.7-2.5h-3.6v19.3
			H615.8z"/>
		<path class="fill l11" d="M673.4,320.3c-2.9,0-5.7-0.5-8.2-1.6c-2.6-1-4.8-2.5-6.7-4.3c-1.9-1.9-3.4-4.1-4.5-6.6c-1.1-2.6-1.7-5.4-1.7-8.4
			c0-3,0.5-5.8,1.7-8.4c1.1-2.6,2.6-4.8,4.5-6.6c1.9-1.9,4.1-3.3,6.7-4.3c2.6-1,5.3-1.6,8.2-1.6c2.9,0,5.6,0.5,8.2,1.6
			c2.5,1,4.8,2.5,6.7,4.3c1.9,1.9,3.4,4.1,4.5,6.6c1.1,2.6,1.7,5.4,1.7,8.4c0,3-0.6,5.8-1.7,8.4c-1.1,2.6-2.6,4.8-4.5,6.6
			c-1.9,1.9-4.1,3.3-6.7,4.3C679,319.8,676.3,320.3,673.4,320.3z M673.4,314.6c2.1,0,4.1-0.4,5.8-1.2c1.8-0.8,3.3-1.8,4.6-3.2
			c1.3-1.4,2.3-3,3-4.8c0.7-1.9,1.1-3.9,1.1-6s-0.4-4.2-1.1-6c-0.7-1.9-1.7-3.5-3-4.8s-2.8-2.4-4.6-3.2c-1.8-0.8-3.7-1.2-5.8-1.2
			c-2.1,0-4.1,0.4-5.9,1.2c-1.8,0.8-3.3,1.9-4.6,3.2c-1.3,1.4-2.3,3-3,4.8c-0.7,1.9-1.1,3.9-1.1,6s0.4,4.2,1.1,6s1.7,3.5,3,4.8
			c1.3,1.4,2.8,2.4,4.6,3.2S671.2,314.6,673.4,314.6z"/>
		<path class="fill l12" d="M720.9,320.3c-1.5,0-2.9-0.2-4.1-0.5c-1.2-0.4-2.3-0.9-3.2-1.5c-0.9-0.6-1.8-1.4-2.5-2.2c-0.7-0.8-1.3-1.7-1.8-2.7
			l5.2-3.2c0.7,1.3,1.5,2.3,2.5,3.1c0.9,0.8,2.1,1.2,3.7,1.2c1.7,0,3.1-0.5,4.1-1.4c1-0.9,1.5-2.6,1.5-5V279h6.4v29.4
			c0,2-0.3,3.8-0.9,5.3c-0.6,1.5-1.4,2.7-2.4,3.7c-1,1-2.3,1.7-3.7,2.2C724.2,320.1,722.6,320.3,720.9,320.3z"/>
		<path class="fill l13" d="M754.2,279h25.9v5.6h-19.6v15.8h17.3v5.5h-17.3v8.3h20.4v5.6h-26.8V279z"/>
		<path class="fill l14" d="M820.2,320.3c-2.9,0-5.6-0.5-8.2-1.6c-2.6-1-4.8-2.5-6.7-4.3s-3.4-4.1-4.5-6.6c-1.1-2.6-1.7-5.4-1.7-8.4
			c0-3,0.5-5.8,1.7-8.4c1.1-2.6,2.6-4.8,4.5-6.6c1.9-1.8,4.1-3.3,6.7-4.3c2.6-1,5.3-1.6,8.2-1.6c7.3,0,12.7,2.7,16.3,8.1l-4.9,3.5
			c-1.2-1.8-2.7-3.2-4.6-4.3c-1.9-1.1-4.2-1.6-6.9-1.6c-2.1,0-4.1,0.4-5.8,1.1c-1.8,0.8-3.3,1.8-4.6,3.2c-1.3,1.4-2.3,3-3,4.8
			c-0.7,1.9-1.1,3.9-1.1,6s0.4,4.2,1.1,6s1.7,3.5,3,4.8c1.3,1.4,2.8,2.4,4.6,3.2c1.8,0.8,3.7,1.2,5.8,1.2c2.8,0,5.2-0.6,7.2-1.7
			c1.9-1.2,3.6-2.7,4.9-4.7l4.9,3.4c-1.8,2.7-4.1,4.9-6.9,6.4C827.4,319.5,824,320.3,820.2,320.3z"/>
		<path class="fill l15" d="M865.1,284.5H853V279h30.6v5.6h-12.1v35.2h-6.4V284.5z"/>
	</g>
</g>
</svg>
