<?xml version="1.0" encoding="utf-8"?>
<!-- Generator: Adobe Illustrator 19.1.0, SVG Export Plug-In . SVG Version: 6.00 Build 0)  -->
<svg version="1.1" xmlns="http://www.w3.org/2000/svg" xmlns:xlink="http://www.w3.org/1999/xlink" x="0px" y="0px"
	 viewBox="0 0 1000 100" style="enable-background:new 0 0 1000 100;" xml:space="preserve">
<style type="text/css">
	.st0{
		fill:none;
		stroke:#FD787C;
		stroke-miterlimit:10;
		stroke-width: 0.5;

		stroke-dasharray: 1000;
		stroke-dashoffset: 1000;

		-webkit-animation: outline 6s forwards;
		animation: outline 6s forwards;
	}

	@-webkit-keyframes outline {
		to { stroke-dashoffset: 0;}
	}

	@keyframes outline {
		to { stroke-dashoffset: 0; }
	}


	.st1{ 
		fill: none;
		-webkit-animation: fill 10s forwards;
		animation: fill 10s forwards;
	}

	@-webkit-keyframes fill {
		from { fill: none; }
		to { fill: #FD787C;}
	}

	@keyframes fill {
		from { fill: none; }
		to { fill: #FD787C;}
	}


	.f1 {
		animation-delay: 2.0s;
	}

	.f2 {
		animation-delay: 2.2s;
	}

	.f3 {
		animation-delay: 2.4s;
	}

	.f4 {
		animation-delay: 2.6s;
	}

	.f5 {
		animation-delay: 2.8s;
	}

	.f6 {
		animation-delay: 3.0s;
	}

	.f7 {
		animation-delay: 3.2s;
	}

	.f8 {
		animation-delay: 3.4s;
	}

	.f9 {
		animation-delay: 3.6s;
	}

	.f10 {
		animation-delay: 3.8s;
	}

	.f11 {
		animation-delay: 4.0s;
	}




	.o1 {
		animation-delay: 0.0s;
	}

	.o2 {
		animation-delay: 0.2s;
	}

	.o3 {
		animation-delay: 0.4s;
	}

	.o4 {
		animation-delay: 0.6s;
	}

	.o5 {
		animation-delay: 0.8s;
	}

	.o6 {
		animation-delay: 1.0s;
	}

	.o7 {
		animation-delay: 1.2s;
	}

	.o8 {
		animation-delay: 1.4s;
	}
	
	.o9 {
		animation-delay: 1.6s;
	}

	.o10 {
		animation-delay: 1.8s;
	}

	.o11 {
		animation-delay: 2.0s;
	}

</style>
<g id="Layer_1">
	<g>
		<path class="st1 f1" d="M338,36.1h15.6v3.3h-11.7V49h10.4v3.3h-10.4v5H354v3.3H338V36.1z"/>
		<path class="st1 f2" d="M383.3,60.6h-4.4l-4.4-6.4c-0.3,0-0.7,0.1-1,0.1c-0.3,0-0.7,0-1,0h-2.3v6.3h-3.8V36.1h6.1c1.7,0,3.2,0.2,4.5,0.6
			s2.4,1,3.3,1.8c0.9,0.8,1.6,1.8,2,2.9c0.5,1.1,0.7,2.4,0.7,3.8c0,1.9-0.4,3.5-1.2,4.8c-0.8,1.3-2,2.3-3.7,3L383.3,60.6z M372.3,51
			c2.4,0,4.2-0.5,5.2-1.5c1.1-1,1.6-2.4,1.6-4.2c0-1.8-0.5-3.3-1.6-4.3c-1.1-1-2.8-1.5-5.2-1.5h-2.2V51H372.3z"/>
		<path class="st1 f3" d="M395.4,36.1h3.8v24.5h-3.8V36.1z"/>
		<path class="st1 f4" d="M416,49.8c0.3-0.6,0.6-1.1,0.9-1.8c0.3-0.6,0.7-1.1,1-1.5l7.9-10.4h4.3l-8.7,11.4l9.6,13h-4.6l-7.6-10.2l-2.6,3.2v7h-3.8
			V36.1h3.8v10.1c0,0.6,0,1.2-0.1,1.8C416.1,48.7,416,49.3,416,49.8z"/>
		<path class="st1 f5" d="M450.8,35.9h0.4l10.7,24.7h-4l-1.4-3.5h-11.2l-1.4,3.5h-3.7L450.8,35.9z M455.2,53.9l-3.1-7.6c-0.2-0.4-0.3-0.8-0.5-1.2
			c-0.1-0.4-0.3-0.8-0.4-1.2c-0.1-0.4-0.3-0.9-0.4-1.3c-0.1,0.4-0.2,0.9-0.4,1.3c-0.1,0.4-0.3,0.8-0.4,1.2c-0.1,0.4-0.3,0.8-0.4,1.2
			l-3.1,7.6H455.2z"/>
		<path class="st1 f6" d="M485.6,36.1h4l4.3,13c0.1,0.3,0.2,0.7,0.3,1.1c0.1,0.4,0.2,0.8,0.3,1.1c0.1,0.4,0.2,0.8,0.3,1.2c0.1-0.4,0.2-0.8,0.4-1.2
			c0.1-0.3,0.3-0.7,0.4-1.1c0.1-0.4,0.3-0.8,0.4-1.2l5.6-13.3h0.5l5.7,13.3c0.1,0.3,0.3,0.7,0.4,1.1c0.1,0.4,0.3,0.8,0.4,1.1
			c0.1,0.4,0.2,0.8,0.4,1.2c0.1-0.4,0.2-0.8,0.3-1.2c0.1-0.3,0.2-0.7,0.3-1.1c0.1-0.4,0.2-0.8,0.3-1.1l4.3-13h3.7l-8.5,24.7H509
			l-6.1-14.6c-0.1-0.3-0.2-0.6-0.4-1c-0.1-0.3-0.2-0.7-0.3-1c-0.1-0.4-0.2-0.7-0.3-1c-0.1,0.3-0.2,0.7-0.4,1c-0.1,0.3-0.2,0.6-0.4,1
			c-0.1,0.3-0.2,0.7-0.4,1l-6.2,14.6h-0.5L485.6,36.1z"/>
		<path class="st1 f7" d="M529.2,36.1h3.8v24.5h-3.8V36.1z"/>
		<path class="st1 f8" d="M546.2,36.1h3.8v21.1h11.3v3.3h-15.1V36.1z"/>
		<path class="st1 f9" d="M583,60.9c-1.7,0-3.4-0.3-4.9-0.9c-1.5-0.6-2.9-1.5-4-2.6c-1.1-1.1-2-2.4-2.7-4c-0.7-1.5-1-3.2-1-5c0-1.8,0.3-3.5,1-5
			c0.7-1.5,1.6-2.9,2.7-4c1.1-1.1,2.5-2,4-2.6c1.5-0.6,3.2-0.9,4.9-0.9c4.4,0,7.6,1.6,9.8,4.9l-2.9,2.1c-0.7-1.1-1.6-1.9-2.8-2.6
			c-1.1-0.6-2.5-1-4.1-1c-1.3,0-2.4,0.2-3.5,0.7c-1.1,0.5-2,1.1-2.7,1.9c-0.8,0.8-1.4,1.8-1.8,2.9c-0.4,1.1-0.6,2.3-0.6,3.6
			c0,1.3,0.2,2.5,0.6,3.6c0.4,1.1,1,2.1,1.8,2.9c0.8,0.8,1.7,1.5,2.7,1.9c1.1,0.5,2.2,0.7,3.5,0.7c1.7,0,3.1-0.3,4.3-1
			s2.1-1.6,2.9-2.8l2.9,2.1c-1.1,1.6-2.5,2.9-4.2,3.8C587.3,60.5,585.3,60.9,583,60.9z"/>
		<path class="st1 f10" d="M616,60.9c-1.8,0-3.4-0.3-4.9-0.9c-1.5-0.6-2.9-1.5-4-2.6c-1.1-1.1-2-2.4-2.7-4c-0.7-1.5-1-3.2-1-5c0-1.8,0.3-3.5,1-5
			c0.7-1.5,1.6-2.9,2.7-4c1.1-1.1,2.5-2,4-2.6c1.5-0.6,3.2-0.9,4.9-0.9s3.4,0.3,4.9,0.9c1.5,0.6,2.9,1.5,4,2.6c1.1,1.1,2,2.4,2.7,4
			c0.7,1.5,1,3.2,1,5c0,1.8-0.3,3.5-1,5c-0.7,1.5-1.6,2.9-2.7,4c-1.1,1.1-2.5,2-4,2.6C619.4,60.6,617.8,60.9,616,60.9z M616,57.5
			c1.3,0,2.4-0.2,3.5-0.7c1.1-0.5,2-1.1,2.8-1.9c0.8-0.8,1.4-1.8,1.8-2.9c0.4-1.1,0.6-2.3,0.6-3.6c0-1.3-0.2-2.5-0.6-3.6
			c-0.4-1.1-1-2.1-1.8-2.9c-0.8-0.8-1.7-1.5-2.8-1.9c-1.1-0.5-2.2-0.7-3.5-0.7s-2.4,0.2-3.5,0.7c-1.1,0.5-2,1.1-2.8,1.9
			c-0.8,0.8-1.4,1.8-1.8,2.9c-0.4,1.1-0.6,2.3-0.6,3.6c0,1.3,0.2,2.5,0.6,3.6c0.4,1.1,1,2.1,1.8,2.9c0.8,0.8,1.7,1.5,2.8,1.9
			S614.8,57.5,616,57.5z"/>
		<path class="st1 f11" d="M644.8,47.2l-6.9-11.1h4.2l3.7,6c0.1,0.2,0.3,0.5,0.4,0.8c0.1,0.3,0.3,0.5,0.4,0.8c0.1,0.3,0.3,0.6,0.4,0.9
			c0.1-0.3,0.2-0.6,0.3-0.9c0.1-0.3,0.2-0.5,0.4-0.8c0.1-0.3,0.3-0.5,0.4-0.8l3.6-6h4.1l-6.8,11.1l8.3,13.4h-4.2l-5.1-8.2
			c-0.1-0.2-0.3-0.5-0.4-0.8c-0.1-0.3-0.3-0.6-0.4-0.8c-0.1-0.3-0.3-0.6-0.4-0.9c-0.1,0.3-0.2,0.6-0.4,0.9c-0.1,0.3-0.2,0.5-0.4,0.8
			c-0.1,0.3-0.3,0.5-0.4,0.8l-5,8.2h-4.1L644.8,47.2z"/>
	</g>
</g>
<g id="Layer_2">
	<g>
		<path class="st0 o1" d="M338,36.1h15.6v3.3h-11.7V49h10.4v3.3h-10.4v5H354v3.3H338V36.1z"/>
		<path class="st0 o2" d="M383.3,60.6h-4.4l-4.4-6.4c-0.3,0-0.7,0.1-1,0.1c-0.3,0-0.7,0-1,0h-2.3v6.3h-3.8V36.1h6.1
			c1.7,0,3.2,0.2,4.5,0.6s2.4,1,3.3,1.8c0.9,0.8,1.6,1.8,2,2.9c0.5,1.1,0.7,2.4,0.7,3.8c0,1.9-0.4,3.5-1.2,4.8c-0.8,1.3-2,2.3-3.7,3
			L383.3,60.6z M372.3,51c2.4,0,4.2-0.5,5.2-1.5c1.1-1,1.6-2.4,1.6-4.2c0-1.8-0.5-3.3-1.6-4.3c-1.1-1-2.8-1.5-5.2-1.5h-2.2V51H372.3
			z"/>
		<path class="st0 o3" d="M395.4,36.1h3.8v24.5h-3.8V36.1z"/>
		<path class="st0 o4" d="M416,49.8c0.3-0.6,0.6-1.1,0.9-1.8c0.3-0.6,0.7-1.1,1-1.5l7.9-10.4h4.3l-8.7,11.4l9.6,13h-4.6l-7.6-10.2
			l-2.6,3.2v7h-3.8V36.1h3.8v10.1c0,0.6,0,1.2-0.1,1.8C416.1,48.7,416,49.3,416,49.8z"/>
		<path class="st0 o5" d="M450.8,35.9h0.4l10.7,24.7h-4l-1.4-3.5h-11.2l-1.4,3.5h-3.7L450.8,35.9z M455.2,53.9l-3.1-7.6
			c-0.2-0.4-0.3-0.8-0.5-1.2c-0.1-0.4-0.3-0.8-0.4-1.2c-0.1-0.4-0.3-0.9-0.4-1.3c-0.1,0.4-0.2,0.9-0.4,1.3c-0.1,0.4-0.3,0.8-0.4,1.2
			c-0.1,0.4-0.3,0.8-0.4,1.2l-3.1,7.6H455.2z"/>
		<path class="st0 o6" d="M485.6,36.1h4l4.3,13c0.1,0.3,0.2,0.7,0.3,1.1c0.1,0.4,0.2,0.8,0.3,1.1c0.1,0.4,0.2,0.8,0.3,1.2
			c0.1-0.4,0.2-0.8,0.4-1.2c0.1-0.3,0.3-0.7,0.4-1.1c0.1-0.4,0.3-0.8,0.4-1.2l5.6-13.3h0.5l5.7,13.3c0.1,0.3,0.3,0.7,0.4,1.1
			c0.1,0.4,0.3,0.8,0.4,1.1c0.1,0.4,0.2,0.8,0.4,1.2c0.1-0.4,0.2-0.8,0.3-1.2c0.1-0.3,0.2-0.7,0.3-1.1c0.1-0.4,0.2-0.8,0.3-1.1
			l4.3-13h3.7l-8.5,24.7H509l-6.1-14.6c-0.1-0.3-0.2-0.6-0.4-1c-0.1-0.3-0.2-0.7-0.3-1c-0.1-0.4-0.2-0.7-0.3-1
			c-0.1,0.3-0.2,0.7-0.4,1c-0.1,0.3-0.2,0.6-0.4,1c-0.1,0.3-0.2,0.7-0.4,1l-6.2,14.6h-0.5L485.6,36.1z"/>
		<path class="st0 o7" d="M529.2,36.1h3.8v24.5h-3.8V36.1z"/>
		<path class="st0 o8" d="M546.2,36.1h3.8v21.1h11.3v3.3h-15.1V36.1z"/>
		<path class="st0 o9" d="M583,60.9c-1.7,0-3.4-0.3-4.9-0.9c-1.5-0.6-2.9-1.5-4-2.6c-1.1-1.1-2-2.4-2.7-4c-0.7-1.5-1-3.2-1-5
			c0-1.8,0.3-3.5,1-5c0.7-1.5,1.6-2.9,2.7-4c1.1-1.1,2.5-2,4-2.6c1.5-0.6,3.2-0.9,4.9-0.9c4.4,0,7.6,1.6,9.8,4.9l-2.9,2.1
			c-0.7-1.1-1.6-1.9-2.8-2.6c-1.1-0.6-2.5-1-4.1-1c-1.3,0-2.4,0.2-3.5,0.7c-1.1,0.5-2,1.1-2.7,1.9c-0.8,0.8-1.4,1.8-1.8,2.9
			c-0.4,1.1-0.6,2.3-0.6,3.6c0,1.3,0.2,2.5,0.6,3.6c0.4,1.1,1,2.1,1.8,2.9c0.8,0.8,1.7,1.5,2.7,1.9c1.1,0.5,2.2,0.7,3.5,0.7
			c1.7,0,3.1-0.3,4.3-1s2.1-1.6,2.9-2.8l2.9,2.1c-1.1,1.6-2.5,2.9-4.2,3.8C587.3,60.5,585.3,60.9,583,60.9z"/>
		<path class="st0 o10" d="M616,60.9c-1.8,0-3.4-0.3-4.9-0.9c-1.5-0.6-2.9-1.5-4-2.6c-1.1-1.1-2-2.4-2.7-4c-0.7-1.5-1-3.2-1-5
			c0-1.8,0.3-3.5,1-5c0.7-1.5,1.6-2.9,2.7-4c1.1-1.1,2.5-2,4-2.6c1.5-0.6,3.2-0.9,4.9-0.9s3.4,0.3,4.9,0.9c1.5,0.6,2.9,1.5,4,2.6
			c1.1,1.1,2,2.4,2.7,4c0.7,1.5,1,3.2,1,5c0,1.8-0.3,3.5-1,5c-0.7,1.5-1.6,2.9-2.7,4c-1.1,1.1-2.5,2-4,2.6
			C619.4,60.6,617.8,60.9,616,60.9z M616,57.5c1.3,0,2.4-0.2,3.5-0.7c1.1-0.5,2-1.1,2.8-1.9c0.8-0.8,1.4-1.8,1.8-2.9
			c0.4-1.1,0.6-2.3,0.6-3.6c0-1.3-0.2-2.5-0.6-3.6c-0.4-1.1-1-2.1-1.8-2.9c-0.8-0.8-1.7-1.5-2.8-1.9c-1.1-0.5-2.2-0.7-3.5-0.7
			s-2.4,0.2-3.5,0.7c-1.1,0.5-2,1.1-2.8,1.9c-0.8,0.8-1.4,1.8-1.8,2.9c-0.4,1.1-0.6,2.3-0.6,3.6c0,1.3,0.2,2.5,0.6,3.6
			c0.4,1.1,1,2.1,1.8,2.9c0.8,0.8,1.7,1.5,2.8,1.9S614.8,57.5,616,57.5z"/>
		<path class="st0 o11" d="M644.8,47.2l-6.9-11.1h4.2l3.7,6c0.1,0.2,0.3,0.5,0.4,0.8c0.1,0.3,0.3,0.5,0.4,0.8c0.1,0.3,0.3,0.6,0.4,0.9
			c0.1-0.3,0.2-0.6,0.3-0.9c0.1-0.3,0.2-0.5,0.4-0.8c0.1-0.3,0.3-0.5,0.4-0.8l3.6-6h4.1l-6.8,11.1l8.3,13.4h-4.2l-5.1-8.2
			c-0.1-0.2-0.3-0.5-0.4-0.8c-0.1-0.3-0.3-0.6-0.4-0.8c-0.1-0.3-0.3-0.6-0.4-0.9c-0.1,0.3-0.2,0.6-0.4,0.9c-0.1,0.3-0.2,0.5-0.4,0.8
			c-0.1,0.3-0.3,0.5-0.4,0.8l-5,8.2h-4.1L644.8,47.2z"/>
	</g>
</g>
</svg>
