<?xml version="1.0" encoding="utf-8"?>
<!-- Generator: Adobe Illustrator 19.1.0, SVG Export Plug-In . SVG Version: 6.00 Build 0)  -->
<svg version="1.1" xmlns="http://www.w3.org/2000/svg" xmlns:xlink="http://www.w3.org/1999/xlink" x="0px" y="0px"
	 viewBox="0 0 1000 600" style="enable-background:new 0 0 1000 600;" xml:space="preserve">
<style type="text/css">

	.st0{
		fill:none;
		stroke:#000000;
		stroke-miterlimit:10;

		stroke-dasharray: 1000;
		stroke-dashoffset: 1000;

		-webkit-animation: outline 6s forwards;
		animation: outline 6s forwards;
	}

	.fill {
		fill:none;
		-webkit-animation: filling 2s forwards;
		animation: filling 2s forwards;
	}

	@-webkit-keyframes outline {
		to { stroke-dashoffset: 0;}
	}

	@keyframes outline {
		to { stroke-dashoffset: 0; }
	}

	@-webkit-keyframes filling {
		from { fill: none; }
		to { fill: #000;}
	}

	@keyframes filling {
		from { fill:none; }
		to { fill: #000; }
	}


	.o2 {
		animation-delay: 0.2s;
	}

	.o3 {
		animation-delay: 0.4s;
	}

	.o4 {
		animation-delay: 0.6s;
	}

	.o5 {
		animation-delay: 0.8s;
	}

	.o6 {
		animation-delay: 1.0s;
	}


	.l1 {
		animation-delay: 0.4s;
	}

	.l2 {
		animation-delay: 0.6s;
	}

	.l3 {
		animation-delay: 0.8s;
	}

	.l4 {
		animation-delay: 1.0s;
	}

	.l5 {
		animation-delay: 1.2s;
	}

	.l6 {
		animation-delay: 1.4s;
	}
</style>

<g id="outline">
	<g>
		<path class="st0 o1" d="M382.2,317h-7.3l-7.3-10.7c-0.6,0.1-1.1,0.1-1.7,0.2c-0.6,0-1.2,0.1-1.7,0.1h-3.8V317h-6.4v-40.8h10.2
			c2.8,0,5.3,0.4,7.5,1.1c2.2,0.7,4,1.7,5.5,3.1c1.5,1.3,2.6,2.9,3.4,4.8c0.8,1.9,1.2,4,1.2,6.3c0,3.2-0.7,5.8-2.1,8s-3.4,3.8-6.1,5
			L382.2,317z M363.9,301c4,0,6.9-0.8,8.7-2.5c1.8-1.7,2.6-4,2.6-7.1c0-3.1-0.9-5.5-2.7-7.1c-1.8-1.7-4.7-2.5-8.7-2.5h-3.6V301
			H363.9z"/>
		<path class="st0 o2" d="M402.2,276.2h25.9v5.6h-19.6v15.8h17.3v5.5h-17.3v8.3H429v5.6h-26.8V276.2z"/>
		<path class="st0 o3" d="M460.7,317.5c-1.9,0-3.7-0.2-5.2-0.7s-3-1-4.2-1.8c-1.2-0.8-2.3-1.7-3.1-2.7c-0.9-1-1.6-2.1-2.2-3.3l5.2-2.9
			c1,1.6,2.1,3,3.5,4.1c1.4,1.1,3.3,1.6,5.8,1.6c2.1,0,3.8-0.5,5.1-1.5c1.3-1,2-2.4,2-4.1c0-0.9-0.2-1.7-0.4-2.3
			c-0.3-0.7-0.7-1.3-1.3-1.8c-0.6-0.5-1.3-1.1-2.1-1.5c-0.8-0.5-1.8-1-2.9-1.4l-2.7-1.2c-1.5-0.6-2.8-1.3-4-2.1
			c-1.2-0.7-2.2-1.6-3-2.5c-0.8-0.9-1.4-2-1.9-3.2c-0.4-1.2-0.7-2.6-0.7-4.1c0-1.5,0.3-2.9,0.8-4.2c0.6-1.3,1.3-2.4,2.3-3.3
			c1-0.9,2.2-1.6,3.6-2.2c1.4-0.5,3-0.8,4.6-0.8c2.7,0,5,0.5,6.9,1.6c1.9,1.1,3.4,2.7,4.7,4.9l-5,3.1c-0.8-1.4-1.7-2.4-2.7-3
			c-1-0.6-2.3-1-3.9-1c-1.6,0-2.9,0.4-3.9,1.3c-0.9,0.9-1.4,2-1.4,3.4c0,1.5,0.5,2.7,1.4,3.6c0.9,0.9,2.4,1.8,4.5,2.6l2.6,1.2
			c1.7,0.8,3.2,1.5,4.6,2.4c1.3,0.8,2.5,1.7,3.4,2.7c0.9,1,1.6,2.1,2,3.4c0.5,1.3,0.7,2.7,0.7,4.3c0,1.8-0.3,3.4-1,4.8
			c-0.7,1.4-1.6,2.6-2.8,3.5c-1.2,1-2.6,1.7-4.2,2.2C464.4,317.3,462.6,317.5,460.7,317.5z"/>
		<path class="st0 o4" d="M509,317.5c-2.2,0-4.3-0.3-6.2-0.9c-1.9-0.6-3.5-1.5-4.9-2.8c-1.4-1.2-2.5-2.8-3.3-4.7
			c-0.8-1.9-1.2-4-1.2-6.5v-26.5h6.4v26.1c0,3.3,0.8,5.7,2.3,7.3s3.8,2.3,6.8,2.3c3,0,5.3-0.8,6.8-2.3c1.6-1.5,2.4-3.9,2.4-7.3
			v-26.1h6.4v26.5c0,2.5-0.4,4.7-1.2,6.5s-1.9,3.4-3.3,4.7s-3,2.2-4.9,2.8C513.3,317.2,511.2,317.5,509,317.5z"/>
		<path class="st0 o5" d="M546.2,275.8h0.7l19.5,22.8l19.3-22.8h0.7V317h-6.1v-21.2c0-0.6,0-1.2,0-1.9c0-0.7,0-1.3,0.1-1.9
			c0-0.7,0.1-1.4,0.1-2.1c-0.4,0.6-0.8,1.1-1.2,1.7c-0.4,0.5-0.8,1.1-1.2,1.6c-0.4,0.6-0.9,1.1-1.3,1.5l-10.3,12.4h-0.7l-10.3-12.4
			c-0.4-0.4-0.8-0.9-1.2-1.5c-0.4-0.6-0.8-1.1-1.2-1.6c-0.4-0.6-0.8-1.2-1.2-1.7c0,0.7,0.1,1.4,0.1,2.1c0,0.6,0.1,1.2,0.1,1.9
			c0,0.7,0,1.3,0,1.9V317h-6.1V275.8z"/>
		<path class="st0 o6" d="M608.1,276.2h25.9v5.6h-19.6v15.8h17.3v5.5h-17.3v8.3h20.4v5.6h-26.8V276.2z"/>
	</g>
</g>
<g id="fill">
	<g>
		<path class="fill l1" d="M382.2,317h-7.3l-7.3-10.7c-0.6,0.1-1.1,0.1-1.7,0.2c-0.6,0-1.2,0.1-1.7,0.1h-3.8V317h-6.4v-40.8h10.2
			c2.8,0,5.3,0.4,7.5,1.1c2.2,0.7,4,1.7,5.5,3.1c1.5,1.3,2.6,2.9,3.4,4.8c0.8,1.9,1.2,4,1.2,6.3c0,3.2-0.7,5.8-2.1,8s-3.4,3.8-6.1,5
			L382.2,317z M363.9,301c4,0,6.9-0.8,8.7-2.5c1.8-1.7,2.6-4,2.6-7.1c0-3.1-0.9-5.5-2.7-7.1c-1.8-1.7-4.7-2.5-8.7-2.5h-3.6V301
			H363.9z"/>
		<path class="fill l2" d="M402.2,276.2h25.9v5.6h-19.6v15.8h17.3v5.5h-17.3v8.3H429v5.6h-26.8V276.2z"/>
		<path class="fill l3" d="M460.7,317.5c-1.9,0-3.7-0.2-5.2-0.7s-3-1-4.2-1.8c-1.2-0.8-2.3-1.7-3.1-2.7c-0.9-1-1.6-2.1-2.2-3.3l5.2-2.9
			c1,1.6,2.1,3,3.5,4.1c1.4,1.1,3.3,1.6,5.8,1.6c2.1,0,3.8-0.5,5.1-1.5c1.3-1,2-2.4,2-4.1c0-0.9-0.2-1.7-0.4-2.3
			c-0.3-0.7-0.7-1.3-1.3-1.8c-0.6-0.5-1.3-1.1-2.1-1.5c-0.8-0.5-1.8-1-2.9-1.4l-2.7-1.2c-1.5-0.6-2.8-1.3-4-2.1
			c-1.2-0.7-2.2-1.6-3-2.5c-0.8-0.9-1.4-2-1.9-3.2c-0.4-1.2-0.7-2.6-0.7-4.1c0-1.5,0.3-2.9,0.8-4.2c0.6-1.3,1.3-2.4,2.3-3.3
			c1-0.9,2.2-1.6,3.6-2.2c1.4-0.5,3-0.8,4.6-0.8c2.7,0,5,0.5,6.9,1.6c1.9,1.1,3.4,2.7,4.7,4.9l-5,3.1c-0.8-1.4-1.7-2.4-2.7-3
			c-1-0.6-2.3-1-3.9-1c-1.6,0-2.9,0.4-3.9,1.3c-0.9,0.9-1.4,2-1.4,3.4c0,1.5,0.5,2.7,1.4,3.6c0.9,0.9,2.4,1.8,4.5,2.6l2.6,1.2
			c1.7,0.8,3.2,1.5,4.6,2.4c1.3,0.8,2.5,1.7,3.4,2.7c0.9,1,1.6,2.1,2,3.4c0.5,1.3,0.7,2.7,0.7,4.3c0,1.8-0.3,3.4-1,4.8
			c-0.7,1.4-1.6,2.6-2.8,3.5c-1.2,1-2.6,1.7-4.2,2.2C464.4,317.3,462.6,317.5,460.7,317.5z"/>
		<path class="fill l4" d="M509,317.5c-2.2,0-4.3-0.3-6.2-0.9c-1.9-0.6-3.5-1.5-4.9-2.8c-1.4-1.2-2.5-2.8-3.3-4.7c-0.8-1.9-1.2-4-1.2-6.5v-26.5h6.4
			v26.1c0,3.3,0.8,5.7,2.3,7.3s3.8,2.3,6.8,2.3c3,0,5.3-0.8,6.8-2.3c1.6-1.5,2.4-3.9,2.4-7.3v-26.1h6.4v26.5c0,2.5-0.4,4.7-1.2,6.5
			s-1.9,3.4-3.3,4.7s-3,2.2-4.9,2.8C513.3,317.2,511.2,317.5,509,317.5z"/>
		<path class="fill l5" d="M546.2,275.8h0.7l19.5,22.8l19.3-22.8h0.7V317h-6.1v-21.2c0-0.6,0-1.2,0-1.9c0-0.7,0-1.3,0.1-1.9c0-0.7,0.1-1.4,0.1-2.1
			c-0.4,0.6-0.8,1.1-1.2,1.7c-0.4,0.5-0.8,1.1-1.2,1.6c-0.4,0.6-0.9,1.1-1.3,1.5l-10.3,12.4h-0.7l-10.3-12.4
			c-0.4-0.4-0.8-0.9-1.2-1.5c-0.4-0.6-0.8-1.1-1.2-1.6c-0.4-0.6-0.8-1.2-1.2-1.7c0,0.7,0.1,1.4,0.1,2.1c0,0.6,0.1,1.2,0.1,1.9
			c0,0.7,0,1.3,0,1.9V317h-6.1V275.8z"/>
		<path class="fill l6" d="M608.1,276.2h25.9v5.6h-19.6v15.8h17.3v5.5h-17.3v8.3h20.4v5.6h-26.8V276.2z"/>
	</g>
</g>
</svg>
