<?xml version="1.0" encoding="utf-8"?>
<!-- Generator: Adobe Illustrator 19.1.0, SVG Export Plug-In . SVG Version: 6.00 Build 0)  -->
<svg version="1.1" xmlns="http://www.w3.org/2000/svg" xmlns:xlink="http://www.w3.org/1999/xlink" x="0px" y="0px"
	 viewBox="0 0 1000 500" style="enable-background:new 0 0 1000 500;" xml:space="preserve">
<style type="text/css">
<!-- 	.st0{display:none;}
	.st1{display:inline;}
	.st2{font-family:'Kaufmann-Bold';}
	.st3{font-size:40px;}
	.st4{font-family:'NeutraTextTF-Demi';}
	.st5{font-size:72px;}
	.st6{letter-spacing:14;} -->


	.st7{
		fill:none;
		stroke:#FD787C;
		stroke-miterlimit:10;
		
		stroke-dasharray: 1000;
		stroke-dashoffset: 1000;

		-webkit-animation: outline 6s forwards;
		animation: outline 6s forwards;
	}



	@-webkit-keyframes outline {
		to { stroke-dashoffset: 0;}
	}

	@keyframes outline {
		to { stroke-dashoffset: 0; }
	}

	.st3{ 
		fill: none;
		stroke-width: 0.2;
		-webkit-animation: fill 10s forwards;
		animation: fill 10s forwards;
	}

	.st4{ 
		fill: none;
		stroke-width: 0.2;
	}

	@-webkit-keyframes fill {
		from { fill: none; }
		to { fill: #FD787C;}
	}

	@keyframes fill {
		from { fill: none; }
		to { fill: #FD787C;}
	}



	.o1 {
		animation-delay: 0.0s;
	}

	.o2 {
		animation-delay: 0.2s;
	}

	.o3 {
		animation-delay: 0.4s;
	}

	.o4 {
		animation-delay: 0.6s;
	}
	.o5 {
		animation-delay: 0.8s;
	}

	.o6 {
		animation-delay: 1.0s;
	}

	.o7 {
		animation-delay: 1.2s;
	}

	.o8 {
		animation-delay: 1.4s;
	}
	.o9 {
		animation-delay: 1.6s;
	}

	.o10 {
		animation-delay: 1.8s;
	}

	.o11 {
		animation-delay: 2.0s;
	}

	.o12 {
		animation-delay: 2.2s;
	}

	.o13 {
		animation-delay: 2.4s;
	}

	.o14 {
		animation-delay: 2.6s;
	}

	.o15 {
		animation-delay: 2.8s;
	}

	.o16 {
		animation-delay: 3.0s;
	}

	.o17 {
		animation-delay: 3.2s;
	}

	.o18 {
		animation-delay: 3.4s;
	}

	.o19 {
		animation-delay: 3.6s;
	}

	.o20 {
		animation-delay: 3.8s;
	}

	.o21 {
		animation-delay: 4.0s;
	}

	.o22 {
		animation-delay: 4.2s;
	}

	.o23 {
		animation-delay: 4.4s;
	}


	.f1 {
		animation-delay: 2.0s;
	}

	.f2 {
		animation-delay: 2.2s;
	}

	.f3 {
		animation-delay: 2.4s;
	}

	.f4 {
		animation-delay: 2.6s;
	}

	.f5 {
		animation-delay: 2.8s;
	}

	.f6 {
		animation-delay: 3.0s;
	}

	.f7 {
		animation-delay: 3.2s;
	}

	.f8 {
		animation-delay: 3.4s;
	}
	.f9 {
		animation-delay: 3.6s;
	}

	.f10 {
		animation-delay: 3.8s;
	}

	.f11 {
		animation-delay: 4.0s;
	}

	.f12 {
		animation-delay: 4.2s;
	}
	.f13 {
		animation-delay: 4.4s;
	}

	.f14 {
		animation-delay: 4.6s;
	}

	.f15 {
		animation-delay: 4.8s;
	}

	.f16 {
		animation-delay: 5.0s;
	}

	.f17 {
		animation-delay: 5.2s;
	}

	.f18 {
		animation-delay: 5.4s;
	}

	.f19 {
		animation-delay: 5.6s;
	}

	.f20 {
		animation-delay: 5.8s;
	}

	.f21 {
		animation-delay: 6.0s;
	}

	.f22 {
		animation-delay: 6.2s;
	}

	.f23 {
		animation-delay: 6.4s;
	}
</style>

<g id="fill" class="st0">
<!-- 	<g class="st1">
		<path class="st4 f1" d="M397.3,194c-0.9,0-1.3-0.1-1.3-0.6c0-1.1,3.3-3.3,10.6-21.6c0.2-0.4,0.3-0.8,0.3-1c0-0.2-0.2-0.3-0.3-0.3
			c-0.2,0-13.2,2.5-13.2,3.4c0,0.5,4.2,2.4,4.2,2.8c0,0.8-1.8,2.6-2.6,2.6c-0.3,0-6.2-3-6.2-5.8c0-3.4,8.2-4.7,19.7-6.8
			c0.7-1.2,1.4-2.1,2.9-2.1c1.1,0,2.2,0.8,2.2,1.9c0,1.2-0.9,2.4-2,2.9c-2.8,7-6.6,15.5-10.2,23.2c-0.4,0.9-0.8,1.3-1.6,1.3H397.3z"
			/>
		<path class="st4 f2" d="M415.3,186.2L415.3,186.2c3.6-2.2,8.3-7.4,10.7-7.4c1.2,0,1.8,0.7,1.8,1.4c0,2.2-3.8,8.1-3.8,9c0,0.2,0.1,0.3,0.3,0.3
			c1,0,4.8-3.4,5.1-3.4c0.2,0,0.4,0.9,0.4,1.8c0,1-0.6,1.8-1.8,2.6c-1.6,1.1-4.4,2.8-6.4,2.8c-1,0-2-0.4-2-1.7
			c0-1.1,3.2-7.2,3.2-7.4c0-0.1,0-0.2-0.1-0.2c-0.2,0-2.1,1.2-5.5,4.3c-2.8,2.5-5.2,5-6.2,5c-0.9,0-1.4-0.4-1.4-1.3
			c0-0.8,0.8-2.7,1.2-3.6l-0.1-0.1c-0.9,0.7-1.6,1.4-1.8,1.4c-0.2,0-0.2-1-0.2-1.9c0-0.9,0.1-1.4,0.4-1.6c1.3-1.2,4.6-3.9,5-5
			c1.6-4.1,6.1-17.1,8.4-17.1c1.4,0,1.6,0.7,1.6,1.4c0,3.3-3.9,10.3-6,14L415.3,186.2z"/>
		<path class="st4 f3" d="M429.1,186.5c0-4.6,5.7-8,9.8-8c2,0,3.5,0.8,3.5,3.5c0,4-7,6.3-8.4,6.3c-0.7,0-1,0.1-1,0.4c0,0.6,1,1.4,2,1.4
			c2.5,0,6.1-2.4,7-3.1c0.7-0.6,1-1,1.2-1c0.3,0,0.4,0.8,0.4,1.3c0,1.1-0.1,1.6-1,2.4c-2,1.6-5.1,3.4-8.5,3.4c-3,0-5.2-1.3-5.2-4.8
			V186.5z M437.7,181.4c-2.1,0-4.3,2.6-4.9,4.5c1.5-0.1,5.9-1.6,5.9-3.3C438.7,181.9,438.4,181.4,437.7,181.4z"/>
		<path class="st4 f4" d="M461.2,179c0.4,0,0.6,0.1,0.6,0.2c0,0.6-4.4,10-4.4,10.6c0,0.4,0.3,0.5,0.6,0.5c1.1,0,5-4.1,6.5-7.1
			c0.9-1.8,1.6-3.2,2.9-3.2c0.8,0,1.2,0.4,1.2,1.1c0,0.8-2.7,8-2.7,8.8c0,0.2,0.2,0.5,0.6,0.5c1.2,0,3.9-3.3,4.1-3.8
			c0.3-0.6,1.7-7.8,4.7-7.8c1.2,0,1.3,1.2,1.3,2.1c0,1.9-2.5,5.7-2.5,6.3c0,0.3,0.2,0.4,0.5,0.4c0.6,0,2-1.5,2.2-1.5
			c0.3,0,0.4,0.6,0.4,1.4c0,1.4-0.2,1.8-0.9,2.2c-0.7,0.4-1.6,0.9-2.4,0.9c-0.8,0-1.3-0.2-1.8-0.8c-1.6,1.7-3.6,3.4-6.2,3.4
			c-2.1,0-2.9-0.7-3.1-2.9c-1.9,2-3.2,2.9-6.2,2.9c-1.2,0-2.6-0.9-2.6-2.3c0-1,0.3-1.7,0.6-2.6l-0.1-0.1c-0.9,0.8-1.5,1.5-1.8,1.5
			c-0.1,0-0.2-0.2-0.2-0.7v-1.8c0-0.6,0.2-0.9,0.6-1.2c1-0.8,3.8-3.4,4.4-4.3c0.6-0.8,0.6-2.7,1.8-2.7H461.2z"/>
		<path class="st4 f5" d="M476.5,186.5c0-4.6,5.7-8,9.8-8c2,0,3.5,0.8,3.5,3.5c0,4-7,6.3-8.4,6.3c-0.7,0-1,0.1-1,0.4c0,0.6,1,1.4,2,1.4
			c2.5,0,6.1-2.4,7-3.1c0.7-0.6,1-1,1.2-1c0.3,0,0.4,0.8,0.4,1.3c0,1.1-0.1,1.6-1,2.4c-2,1.6-5.1,3.4-8.5,3.4c-3,0-5.2-1.3-5.2-4.8
			V186.5z M485.1,181.4c-2.1,0-4.3,2.6-4.9,4.5c1.5-0.1,5.9-1.6,5.9-3.3C486.1,181.9,485.8,181.4,485.1,181.4z"/>
		<path class="st4 f6" d="M503.9,186.9c0,0.4,0.4,0.5,0.8,0.5c0.7,0,2.1-1.4,2.3-1.4s0.4,0.4,0.4,1.4c0,1.2-0.2,1.9-0.8,2.2
			c-0.6,0.3-1.3,0.8-2.5,0.8c-0.8,0-1.4-0.1-2.1-0.6c-2.2,2.4-3.4,3.3-6.7,3.3c-2,0-3.3-1.5-3.3-2.8c0-0.7,0.1-1.4,0.2-2.2
			c-0.9,0.6-1.8,1.5-2,1.5c-0.2,0-0.3-0.4-0.3-1.6c0-1.1,0-1.6,0.4-1.8c0.6-0.4,3.8-3,4.4-4c0.5-0.9,5.2-13.8,7.1-17
			c0.5-0.8,0.9-1.2,2-1.2s1.3,0.8,1.3,1.6c0,3.3-5.1,11.9-6,14.1c-1.9,4.7-3.5,8-3.5,9.6c0,0.7,0.3,1,0.9,1c1,0,3.7-2,3.7-3
			c0-0.6-0.2-0.9-0.2-1.4c0-4,2.1-7.5,3.9-7.5c1,0,1.5,0.8,1.5,2.1C505.4,184,503.9,186.4,503.9,186.9z"/>
		<path class="st4 f7" d="M516.9,179c-0.4,1.3-0.9,2.4-1.3,3.6h0.1c1.7-2.2,3.6-3.8,6.5-3.8c2.1,0,3.4,1.6,3.4,3.8c0,3-1.6,5.1-3.6,7.2v0.1
			c2.5-0.5,3.6-1.4,5.5-3c0.5-0.4,0.7-0.7,0.9-0.7c0.4,0,0.5,0.8,0.5,1.4c0,1.5-0.6,2-1.7,2.8c-2,1.4-4,2.5-6.7,2.5
			c-0.6,0-1.2,0-1.8-0.3c-0.6,0.3-1.5,0.7-2.8,0.7c-0.9,0-2.2-1-2.2-2c0-0.8,0.4-1,1-1c0.5,0,1.1,0.3,1.7,0.3c1.3,0,5.3-5.1,5.3-7.7
			c0-0.3-0.2-0.6-0.9-0.6c-2,0-6.8,4.5-9,10.4c-1.1,3-2.2,7-2.8,9.9c-0.3,1.5-1.1,2.3-2,2.3c-1.1,0-1.6-0.9-1.6-2
			c0-3.1,4.8-14.6,6.1-17.6h-0.1l-1.3,1.4c-1.4,1.4-3.4,3.2-3.6,3.2c-0.1,0-0.2-0.1-0.2-0.6v-2c0-0.5,0.3-0.8,0.6-1
			c0.9-0.9,6.4-5.2,6.8-6.2c0.2-0.7,0.3-0.8,0.4-0.9H516.9z"/>
		<path class="st4 f8" d="M542.8,183.6c-1.1,2.2-2.6,5.4-2.6,5.6c0,0.2,0.2,0.3,0.4,0.3c0.4,0,3-1.9,4-2.7c0.3-0.3,0.6-0.6,0.9-0.6
			c0.4,0,0.4,0.8,0.4,1.9c0,0.8-0.3,1.5-2.2,2.7c-1.6,1-3.9,2.5-5.5,2.5c-1.4,0-1.7-0.8-1.6-2.1c-1.2,1.2-2.2,2.1-4.1,2.1h-0.8
			c-2.2,0-3.7-1.8-3.7-5v-0.9c0-5.7,7.3-8.8,11.9-8.8c1,0,2.3,0.1,2.9,0.3c0.1,0.5,0.2,1.9,0.2,2.7c0,0.2-0.1,0.4-0.2,0.4
			c0,0-1.4-0.7-3-0.7c-3.2,0-7.9,2.7-7.9,6.1v1.2c0,0.7,0.4,1.4,1,1.4c2,0,5-4,6.3-6.6c0.2,0.1,0.9,0.2,1.2,0.2H542.8z"/>
		<path class="st4 f9" d="M560.2,183.4c-1,2.1-2,4.3-2.8,6.4l0.1,0.1c2.1-1.5,5-3.8,5.1-3.8c0.2,0,0.3,0.7,0.3,1.5c0,1.2-0.1,1.6-0.4,1.8
			c-1.4,1.1-7.4,5.6-8.2,7.2c-1.9,4-3,8.1-5.3,8.1c-1.2,0-1.8-0.8-1.8-1.7c0-4.5,5.2-9.2,5.2-10.2c0-0.2,0-0.5,0-0.6
			c-1,0.7-2.2,0.9-3,0.9c-2.6,0-4-1.9-4-4.5v-1.9c0-6,6.4-8.4,11.7-8.4c3.1,0,3.3,0.2,3.3,1.5c0,1.6,0,1.8-0.3,1.8
			c-0.2,0-0.9-0.6-3.4-0.6c-4.2,0-7.5,2.8-7.5,5.7v1.1c0,0.8,0.2,1.8,1.2,1.8c2.4,0,5.3-4.9,6.4-6.5H560.2z"/>
		<path class="st4 f10" d="M562.5,186.5c0-4.6,5.7-8,9.8-8c2,0,3.5,0.8,3.5,3.5c0,4-7,6.3-8.4,6.3c-0.7,0-1,0.1-1,0.4c0,0.6,1,1.4,2,1.4
			c2.5,0,6.1-2.4,7-3.1c0.7-0.6,1-1,1.2-1c0.3,0,0.4,0.8,0.4,1.3c0,1.1-0.1,1.6-1,2.4c-2,1.6-5.1,3.4-8.5,3.4c-3,0-5.2-1.3-5.2-4.8
			V186.5z M571.1,181.4c-2.1,0-4.3,2.6-4.9,4.5c1.5-0.1,5.9-1.6,5.9-3.3C572.1,181.9,571.7,181.4,571.1,181.4z"/>
		<path class="st4 f11" d="M599.3,181.9c0,1.4-0.7,1.7-0.9,2c0.1,0.4,0.4,1,0.4,1.5s-0.4,1.1-0.5,1.6c0.1,0.1,0.4,0.1,0.6,0.1c1,0,2-1,2.1-1
			c0.2,0,0.2,0.4,0.2,1.7c0,1.3-0.2,1.6-0.6,1.8c-1,0.5-1.6,0.8-2.4,0.8c-0.4,0-0.8-0.1-1.2-0.3c-1.9,2.2-3.6,3.2-6.6,3.2
			c-2.9,0-4.8-1.8-4.8-5c0-7.2,4.9-10.6,9.3-10.6C597.1,177.6,599.3,179.2,599.3,181.9z M594.2,188.4c-0.2-0.6-0.5-1.3-0.5-1.8
			c0-2.6,2.1-3,2.1-3.8c0-0.7-0.4-1.6-1.8-1.6c-1.8,0-4.4,2.6-4.4,6.2c0,1.8,0.8,2.4,2.2,2.4C592.5,189.9,593.9,189.2,594.2,188.4z"
			/>
		<path class="st4 f12" d="M609.5,191.2c-0.2,3.1-0.4,5.5-1.7,8.1c-1,2-3.2,5.5-5.7,5.5c-2,0-2.9-1.3-2.9-3.2c0-2.2,3.7-12.2,4.4-14.3h-0.1
			c-0.2,0.1-2.7,2.4-3,2.4c-0.3,0-0.3-1.1-0.3-1.6c0-1.2,0.2-1.6,0.6-1.9c2.6-2.3,4.7-4.3,4.9-4.9c3.8-9.1,4.9-17.2,7.7-17.2
			c1,0,1.3,0.7,1.3,1.5c0,4.2-4.7,13.2-5.2,14.8c-2.7,8.2-7,19.1-7,20.1c0,0.5,0.1,0.7,0.4,0.7c0.6,0,1.7-1.8,2.7-4.2
			c0.9-2.2,1.4-4.4,1.6-6.5c0-0.4,0.1-0.8,0.4-1c3.4-2.6,4.4-3.5,4.6-3.5s0.4,0.5,0.4,1.5c0,1-0.2,1.7-0.9,2.2L609.5,191.2z"/>
	</g> -->
	<g class="st1">
		<path class="st3 f13" d="M174.9,219.5H206v6.7h-23.5v19h20.8v6.6h-20.8v10H207v6.7h-32.1V219.5z"/>
		<path class="st3 f14" d="M265.5,268.5h-8.8l-8.8-12.9c-0.7,0.1-1.4,0.2-2.1,0.2c-0.7,0-1.4,0.1-2.1,0.1h-4.6v12.6h-7.6v-49h12.2
			c3.4,0,6.4,0.4,9,1.3c2.6,0.9,4.8,2.1,6.6,3.7c1.8,1.6,3.1,3.5,4.1,5.8c0.9,2.3,1.4,4.8,1.4,7.6c0,3.8-0.8,7-2.5,9.6
			c-1.7,2.6-4.1,4.6-7.3,6L265.5,268.5z M243.5,249.4c4.8,0,8.3-1,10.4-3c2.1-2,3.2-4.8,3.2-8.5c0-3.7-1.1-6.6-3.2-8.6
			c-2.1-2-5.6-3-10.4-3h-4.3v23.1H243.5z"/>
		<path class="st3 f15" d="M289.8,219.5h7.6v49h-7.6V219.5z"/>
		<path class="st3 f16" d="M330.9,246.9c0.5-1.1,1.1-2.3,1.8-3.5c0.7-1.2,1.3-2.3,1.9-3.1l15.8-20.7h8.6l-17.4,22.9l19.3,26.1h-9.2l-15.1-20.4
			l-5.3,6.4v14h-7.6v-49h7.6v20.2c0,1.1-0.1,2.3-0.2,3.7C331.1,244.7,331,245.9,330.9,246.9z"/>
		<path class="st3 f17" d="M400.5,219h0.9l21.5,49.5h-7.9l-2.8-6.9h-22.4l-2.8,6.9h-7.3L400.5,219z M409.3,255.2l-6.1-15.3c-0.3-0.7-0.6-1.5-0.9-2.3
			c-0.3-0.8-0.5-1.6-0.8-2.3c-0.2-0.9-0.5-1.7-0.8-2.6c-0.2,0.9-0.5,1.7-0.7,2.6c-0.2,0.7-0.5,1.5-0.8,2.3c-0.3,0.8-0.6,1.6-0.9,2.3
			l-6.1,15.3H409.3z"/>
		<path class="st3 f18" d="M470.2,219.5h8l8.6,26.1c0.2,0.7,0.5,1.4,0.7,2.3c0.2,0.8,0.4,1.6,0.6,2.3c0.2,0.9,0.4,1.7,0.6,2.4
			c0.2-0.8,0.5-1.6,0.7-2.4c0.2-0.7,0.5-1.4,0.8-2.2c0.3-0.8,0.6-1.6,0.9-2.3l11.2-26.6h0.9l11.3,26.6c0.3,0.7,0.6,1.4,0.8,2.3
			c0.3,0.8,0.5,1.6,0.8,2.3c0.2,0.9,0.5,1.7,0.7,2.4c0.2-0.8,0.5-1.6,0.6-2.4c0.2-0.7,0.4-1.4,0.6-2.3c0.2-0.8,0.4-1.6,0.7-2.3
			l8.6-26.1h7.4L517.9,269H517l-12.2-29.2c-0.2-0.6-0.5-1.2-0.7-1.9c-0.2-0.7-0.5-1.4-0.6-2c-0.2-0.7-0.4-1.4-0.6-2.1
			c-0.2,0.7-0.5,1.4-0.7,2.1c-0.2,0.6-0.5,1.3-0.7,2c-0.2,0.7-0.5,1.3-0.7,1.9L488.2,269h-0.9L470.2,219.5z"/>
		<path class="st3 f19" d="M557.4,219.5h7.6v49h-7.6V219.5z"/>
		<path class="st3 f20" d="M591.4,219.5h7.6v42.3h22.6v6.7h-30.2V219.5z"/>
		<path class="st3 f21" d="M665,269.2c-3.5,0-6.7-0.6-9.8-1.9c-3.1-1.2-5.7-3-8-5.2c-2.3-2.2-4-4.9-5.4-8c-1.3-3.1-2-6.4-2-10.1c0-3.6,0.7-7,2-10.1
			c1.3-3.1,3.1-5.7,5.4-7.9c2.3-2.2,4.9-3.9,8-5.2c3.1-1.2,6.3-1.9,9.8-1.9c8.7,0,15.3,3.2,19.6,9.7l-5.8,4.2
			c-1.4-2.2-3.2-3.9-5.5-5.1c-2.3-1.3-5-1.9-8.2-1.9c-2.5,0-4.9,0.5-7,1.4c-2.1,0.9-3.9,2.2-5.5,3.8s-2.7,3.6-3.6,5.8
			c-0.9,2.2-1.3,4.6-1.3,7.2c0,2.6,0.4,5,1.3,7.2c0.9,2.2,2.1,4.2,3.6,5.8c1.5,1.6,3.4,2.9,5.5,3.9c2.1,0.9,4.4,1.4,7,1.4
			c3.4,0,6.3-0.7,8.6-2.1c2.3-1.4,4.3-3.3,5.9-5.6l5.8,4.1c-2.2,3.3-4.9,5.8-8.3,7.7C673.6,268.2,669.6,269.2,665,269.2z"/>
		<path class="st3 f22" d="M731,269.2c-3.5,0-6.8-0.6-9.9-1.9c-3.1-1.2-5.7-3-8-5.2c-2.3-2.2-4.1-4.9-5.4-8c-1.3-3.1-2-6.4-2-10.1
			c0-3.6,0.7-7,2-10.1c1.3-3.1,3.1-5.7,5.4-8c2.3-2.2,5-4,8-5.2c3.1-1.2,6.4-1.9,9.9-1.9c3.5,0,6.8,0.6,9.8,1.9c3,1.2,5.7,3,8,5.2
			c2.3,2.2,4.1,4.9,5.4,8c1.3,3.1,2,6.4,2,10.1c0,3.6-0.7,7-2,10.1c-1.3,3.1-3.1,5.7-5.4,8c-2.3,2.2-4.9,4-8,5.2
			C737.8,268.5,734.5,269.2,731,269.2z M731,262.3c2.5,0,4.9-0.5,7-1.4c2.1-0.9,4-2.2,5.5-3.9c1.5-1.6,2.7-3.6,3.6-5.8
			c0.9-2.2,1.3-4.6,1.3-7.2c0-2.6-0.4-5-1.3-7.2c-0.9-2.2-2.1-4.2-3.6-5.8s-3.4-2.9-5.5-3.9c-2.1-0.9-4.5-1.4-7-1.4
			c-2.5,0-4.9,0.5-7.1,1.4c-2.2,0.9-4,2.2-5.5,3.9s-2.7,3.6-3.6,5.8c-0.9,2.2-1.3,4.6-1.3,7.2c0,2.6,0.4,5,1.3,7.2
			c0.9,2.2,2.1,4.2,3.6,5.8c1.5,1.6,3.4,2.9,5.5,3.9C726.1,261.8,728.5,262.3,731,262.3z"/>
		<path class="st3 f22" d="M788.6,241.7l-13.8-22.2h8.4l7.4,12c0.3,0.5,0.6,1,0.8,1.5c0.3,0.6,0.5,1.1,0.8,1.6c0.2,0.6,0.5,1.2,0.8,1.8
			c0.2-0.6,0.4-1.2,0.6-1.7c0.2-0.5,0.5-1.1,0.8-1.6s0.5-1.1,0.8-1.6l7.3-12h8.2l-13.5,22.2l16.6,26.8h-8.4l-10.2-16.4
			c-0.3-0.5-0.6-1-0.9-1.6c-0.3-0.6-0.6-1.1-0.8-1.7c-0.3-0.6-0.6-1.2-0.8-1.8c-0.2,0.6-0.5,1.2-0.7,1.8c-0.2,0.5-0.5,1.1-0.8,1.6
			c-0.3,0.6-0.5,1.1-0.8,1.6l-10.1,16.4h-8.2L788.6,241.7z"/>
	</g>
</g>
<g id="outline">
<!-- 	<g>
		<path class="st7 o1" d="M397.3,194c-0.9,0-1.3-0.1-1.3-0.6c0-1.1,3.3-3.3,10.6-21.6c0.2-0.4,0.3-0.8,0.3-1c0-0.2-0.2-0.3-0.3-0.3
			c-0.2,0-13.2,2.5-13.2,3.4c0,0.5,4.2,2.4,4.2,2.8c0,0.8-1.8,2.6-2.6,2.6c-0.3,0-6.2-3-6.2-5.8c0-3.4,8.2-4.7,19.7-6.8
			c0.7-1.2,1.4-2.1,2.9-2.1c1.1,0,2.2,0.8,2.2,1.9c0,1.2-0.9,2.4-2,2.9c-2.8,7-6.6,15.5-10.2,23.2c-0.4,0.9-0.8,1.3-1.6,1.3H397.3z"
			/>
		<path class="st7 o2" d="M415.3,186.2L415.3,186.2c3.6-2.2,8.3-7.4,10.7-7.4c1.2,0,1.8,0.7,1.8,1.4c0,2.2-3.8,8.1-3.8,9
			c0,0.2,0.1,0.3,0.3,0.3c1,0,4.8-3.4,5.1-3.4c0.2,0,0.4,0.9,0.4,1.8c0,1-0.6,1.8-1.8,2.6c-1.6,1.1-4.4,2.8-6.4,2.8
			c-1,0-2-0.4-2-1.7c0-1.1,3.2-7.2,3.2-7.4c0-0.1,0-0.2-0.1-0.2c-0.2,0-2.1,1.2-5.5,4.3c-2.8,2.5-5.2,5-6.2,5
			c-0.9,0-1.4-0.4-1.4-1.3c0-0.8,0.8-2.7,1.2-3.6l-0.1-0.1c-0.9,0.7-1.6,1.4-1.8,1.4c-0.2,0-0.2-1-0.2-1.9c0-0.9,0.1-1.4,0.4-1.6
			c1.3-1.2,4.6-3.9,5-5c1.6-4.1,6.1-17.1,8.4-17.1c1.4,0,1.6,0.7,1.6,1.4c0,3.3-3.9,10.3-6,14L415.3,186.2z"/>
		<path class="st7 o3" d="M429.1,186.5c0-4.6,5.7-8,9.8-8c2,0,3.5,0.8,3.5,3.5c0,4-7,6.3-8.4,6.3c-0.7,0-1,0.1-1,0.4c0,0.6,1,1.4,2,1.4
			c2.5,0,6.1-2.4,7-3.1c0.7-0.6,1-1,1.2-1c0.3,0,0.4,0.8,0.4,1.3c0,1.1-0.1,1.6-1,2.4c-2,1.6-5.1,3.4-8.5,3.4c-3,0-5.2-1.3-5.2-4.8
			V186.5z M437.7,181.4c-2.1,0-4.3,2.6-4.9,4.5c1.5-0.1,5.9-1.6,5.9-3.3C438.7,181.9,438.4,181.4,437.7,181.4z"/>
		<path class="st7 o4" d="M461.2,179c0.4,0,0.6,0.1,0.6,0.2c0,0.6-4.4,10-4.4,10.6c0,0.4,0.3,0.5,0.6,0.5c1.1,0,5-4.1,6.5-7.1
			c0.9-1.8,1.6-3.2,2.9-3.2c0.8,0,1.2,0.4,1.2,1.1c0,0.8-2.7,8-2.7,8.8c0,0.2,0.2,0.5,0.6,0.5c1.2,0,3.9-3.3,4.1-3.8
			c0.3-0.6,1.7-7.8,4.7-7.8c1.2,0,1.3,1.2,1.3,2.1c0,1.9-2.5,5.7-2.5,6.3c0,0.3,0.2,0.4,0.5,0.4c0.6,0,2-1.5,2.2-1.5
			c0.3,0,0.4,0.6,0.4,1.4c0,1.4-0.2,1.8-0.9,2.2c-0.7,0.4-1.6,0.9-2.4,0.9c-0.8,0-1.3-0.2-1.8-0.8c-1.6,1.7-3.6,3.4-6.2,3.4
			c-2.1,0-2.9-0.7-3.1-2.9c-1.9,2-3.2,2.9-6.2,2.9c-1.2,0-2.6-0.9-2.6-2.3c0-1,0.3-1.7,0.6-2.6l-0.1-0.1c-0.9,0.8-1.5,1.5-1.8,1.5
			c-0.1,0-0.2-0.2-0.2-0.7v-1.8c0-0.6,0.2-0.9,0.6-1.2c1-0.8,3.8-3.4,4.4-4.3c0.6-0.8,0.6-2.7,1.8-2.7H461.2z"/>
		<path class="st7 o5" d="M476.5,186.5c0-4.6,5.7-8,9.8-8c2,0,3.5,0.8,3.5,3.5c0,4-7,6.3-8.4,6.3c-0.7,0-1,0.1-1,0.4c0,0.6,1,1.4,2,1.4
			c2.5,0,6.1-2.4,7-3.1c0.7-0.6,1-1,1.2-1c0.3,0,0.4,0.8,0.4,1.3c0,1.1-0.1,1.6-1,2.4c-2,1.6-5.1,3.4-8.5,3.4c-3,0-5.2-1.3-5.2-4.8
			V186.5z M485.1,181.4c-2.1,0-4.3,2.6-4.9,4.5c1.5-0.1,5.9-1.6,5.9-3.3C486.1,181.9,485.8,181.4,485.1,181.4z"/>
		<path class="st7 o6" d="M503.9,186.9c0,0.4,0.4,0.5,0.8,0.5c0.7,0,2.1-1.4,2.3-1.4s0.4,0.4,0.4,1.4c0,1.2-0.2,1.9-0.8,2.2
			c-0.6,0.3-1.3,0.8-2.5,0.8c-0.8,0-1.4-0.1-2.1-0.6c-2.2,2.4-3.4,3.3-6.7,3.3c-2,0-3.3-1.5-3.3-2.8c0-0.7,0.1-1.4,0.2-2.2
			c-0.9,0.6-1.8,1.5-2,1.5c-0.2,0-0.3-0.4-0.3-1.6c0-1.1,0-1.6,0.4-1.8c0.6-0.4,3.8-3,4.4-4c0.5-0.9,5.2-13.8,7.1-17
			c0.5-0.8,0.9-1.2,2-1.2s1.3,0.8,1.3,1.6c0,3.3-5.1,11.9-6,14.1c-1.9,4.7-3.5,8-3.5,9.6c0,0.7,0.3,1,0.9,1c1,0,3.7-2,3.7-3
			c0-0.6-0.2-0.9-0.2-1.4c0-4,2.1-7.5,3.9-7.5c1,0,1.5,0.8,1.5,2.1C505.4,184,503.9,186.4,503.9,186.9z"/>
		<path class="st7 o7" d="M516.9,179c-0.4,1.3-0.9,2.4-1.3,3.6h0.1c1.7-2.2,3.6-3.8,6.5-3.8c2.1,0,3.4,1.6,3.4,3.8c0,3-1.6,5.1-3.6,7.2
			v0.1c2.5-0.5,3.6-1.4,5.5-3c0.5-0.4,0.7-0.7,0.9-0.7c0.4,0,0.5,0.8,0.5,1.4c0,1.5-0.6,2-1.7,2.8c-2,1.4-4,2.5-6.7,2.5
			c-0.6,0-1.2,0-1.8-0.3c-0.6,0.3-1.5,0.7-2.8,0.7c-0.9,0-2.2-1-2.2-2c0-0.8,0.4-1,1-1c0.5,0,1.1,0.3,1.7,0.3c1.3,0,5.3-5.1,5.3-7.7
			c0-0.3-0.2-0.6-0.9-0.6c-2,0-6.8,4.5-9,10.4c-1.1,3-2.2,7-2.8,9.9c-0.3,1.5-1.1,2.3-2,2.3c-1.1,0-1.6-0.9-1.6-2
			c0-3.1,4.8-14.6,6.1-17.6h-0.1l-1.3,1.4c-1.4,1.4-3.4,3.2-3.6,3.2c-0.1,0-0.2-0.1-0.2-0.6v-2c0-0.5,0.3-0.8,0.6-1
			c0.9-0.9,6.4-5.2,6.8-6.2c0.2-0.7,0.3-0.8,0.4-0.9H516.9z"/>
		<path class="st7 o8" d="M542.8,183.6c-1.1,2.2-2.6,5.4-2.6,5.6c0,0.2,0.2,0.3,0.4,0.3c0.4,0,3-1.9,4-2.7c0.3-0.3,0.6-0.6,0.9-0.6
			c0.4,0,0.4,0.8,0.4,1.9c0,0.8-0.3,1.5-2.2,2.7c-1.6,1-3.9,2.5-5.5,2.5c-1.4,0-1.7-0.8-1.6-2.1c-1.2,1.2-2.2,2.1-4.1,2.1h-0.8
			c-2.2,0-3.7-1.8-3.7-5v-0.9c0-5.7,7.3-8.8,11.9-8.8c1,0,2.3,0.1,2.9,0.3c0.1,0.5,0.2,1.9,0.2,2.7c0,0.2-0.1,0.4-0.2,0.4
			c0,0-1.4-0.7-3-0.7c-3.2,0-7.9,2.7-7.9,6.1v1.2c0,0.7,0.4,1.4,1,1.4c2,0,5-4,6.3-6.6c0.2,0.1,0.9,0.2,1.2,0.2H542.8z"/>
		<path class="st7 o9" d="M560.2,183.4c-1,2.1-2,4.3-2.8,6.4l0.1,0.1c2.1-1.5,5-3.8,5.1-3.8c0.2,0,0.3,0.7,0.3,1.5
			c0,1.2-0.1,1.6-0.4,1.8c-1.4,1.1-7.4,5.6-8.2,7.2c-1.9,4-3,8.1-5.3,8.1c-1.2,0-1.8-0.8-1.8-1.7c0-4.5,5.2-9.2,5.2-10.2
			c0-0.2,0-0.5,0-0.6c-1,0.7-2.2,0.9-3,0.9c-2.6,0-4-1.9-4-4.5v-1.9c0-6,6.4-8.4,11.7-8.4c3.1,0,3.3,0.2,3.3,1.5
			c0,1.6,0,1.8-0.3,1.8c-0.2,0-0.9-0.6-3.4-0.6c-4.2,0-7.5,2.8-7.5,5.7v1.1c0,0.8,0.2,1.8,1.2,1.8c2.4,0,5.3-4.9,6.4-6.5H560.2z"/>
		<path class="st7 o10" d="M562.5,186.5c0-4.6,5.7-8,9.8-8c2,0,3.5,0.8,3.5,3.5c0,4-7,6.3-8.4,6.3c-0.7,0-1,0.1-1,0.4c0,0.6,1,1.4,2,1.4
			c2.5,0,6.1-2.4,7-3.1c0.7-0.6,1-1,1.2-1c0.3,0,0.4,0.8,0.4,1.3c0,1.1-0.1,1.6-1,2.4c-2,1.6-5.1,3.4-8.5,3.4c-3,0-5.2-1.3-5.2-4.8
			V186.5z M571.1,181.4c-2.1,0-4.3,2.6-4.9,4.5c1.5-0.1,5.9-1.6,5.9-3.3C572.1,181.9,571.7,181.4,571.1,181.4z"/>
		<path class="st7 o11" d="M599.3,181.9c0,1.4-0.7,1.7-0.9,2c0.1,0.4,0.4,1,0.4,1.5s-0.4,1.1-0.5,1.6c0.1,0.1,0.4,0.1,0.6,0.1
			c1,0,2-1,2.1-1c0.2,0,0.2,0.4,0.2,1.7c0,1.3-0.2,1.6-0.6,1.8c-1,0.5-1.6,0.8-2.4,0.8c-0.4,0-0.8-0.1-1.2-0.3
			c-1.9,2.2-3.6,3.2-6.6,3.2c-2.9,0-4.8-1.8-4.8-5c0-7.2,4.9-10.6,9.3-10.6C597.1,177.6,599.3,179.2,599.3,181.9z M594.2,188.4
			c-0.2-0.6-0.5-1.3-0.5-1.8c0-2.6,2.1-3,2.1-3.8c0-0.7-0.4-1.6-1.8-1.6c-1.8,0-4.4,2.6-4.4,6.2c0,1.8,0.8,2.4,2.2,2.4
			C592.5,189.9,593.9,189.2,594.2,188.4z"/>
		<path class="st7 o12" d="M609.5,191.2c-0.2,3.1-0.4,5.5-1.7,8.1c-1,2-3.2,5.5-5.7,5.5c-2,0-2.9-1.3-2.9-3.2c0-2.2,3.7-12.2,4.4-14.3
			h-0.1c-0.2,0.1-2.7,2.4-3,2.4c-0.3,0-0.3-1.1-0.3-1.6c0-1.2,0.2-1.6,0.6-1.9c2.6-2.3,4.7-4.3,4.9-4.9c3.8-9.1,4.9-17.2,7.7-17.2
			c1,0,1.3,0.7,1.3,1.5c0,4.2-4.7,13.2-5.2,14.8c-2.7,8.2-7,19.1-7,20.1c0,0.5,0.1,0.7,0.4,0.7c0.6,0,1.7-1.8,2.7-4.2
			c0.9-2.2,1.4-4.4,1.6-6.5c0-0.4,0.1-0.8,0.4-1c3.4-2.6,4.4-3.5,4.6-3.5s0.4,0.5,0.4,1.5c0,1-0.2,1.7-0.9,2.2L609.5,191.2z"/>
	</g> -->
	<g>
		<path class="st7 o13" d="M174.9,219.5H206v6.7h-23.5v19h20.8v6.6h-20.8v10H207v6.7h-32.1V219.5z"/>
		<path class="st7 o14" d="M265.5,268.5h-8.8l-8.8-12.9c-0.7,0.1-1.4,0.2-2.1,0.2c-0.7,0-1.4,0.1-2.1,0.1h-4.6v12.6h-7.6v-49h12.2
			c3.4,0,6.4,0.4,9,1.3c2.6,0.9,4.8,2.1,6.6,3.7c1.8,1.6,3.1,3.5,4.1,5.8c0.9,2.3,1.4,4.8,1.4,7.6c0,3.8-0.8,7-2.5,9.6
			c-1.7,2.6-4.1,4.6-7.3,6L265.5,268.5z M243.5,249.4c4.8,0,8.3-1,10.4-3c2.1-2,3.2-4.8,3.2-8.5c0-3.7-1.1-6.6-3.2-8.6
			c-2.1-2-5.6-3-10.4-3h-4.3v23.1H243.5z"/>
		<path class="st7 o15" d="M289.8,219.5h7.6v49h-7.6V219.5z"/>
		<path class="st7 o16" d="M330.9,246.9c0.5-1.1,1.1-2.3,1.8-3.5c0.7-1.2,1.3-2.3,1.9-3.1l15.8-20.7h8.6l-17.4,22.9l19.3,26.1h-9.2
			l-15.1-20.4l-5.3,6.4v14h-7.6v-49h7.6v20.2c0,1.1-0.1,2.3-0.2,3.7C331.1,244.7,331,245.9,330.9,246.9z"/>
		<path class="st7 o17" d="M400.5,219h0.9l21.5,49.5h-7.9l-2.8-6.9h-22.4l-2.8,6.9h-7.3L400.5,219z M409.3,255.2l-6.1-15.3
			c-0.3-0.7-0.6-1.5-0.9-2.3c-0.3-0.8-0.5-1.6-0.8-2.3c-0.2-0.9-0.5-1.7-0.8-2.6c-0.2,0.9-0.5,1.7-0.7,2.6c-0.2,0.7-0.5,1.5-0.8,2.3
			c-0.3,0.8-0.6,1.6-0.9,2.3l-6.1,15.3H409.3z"/>
		<path class="st7 o18" d="M470.2,219.5h8l8.6,26.1c0.2,0.7,0.5,1.4,0.7,2.3c0.2,0.8,0.4,1.6,0.6,2.3c0.2,0.9,0.4,1.7,0.6,2.4
			c0.2-0.8,0.5-1.6,0.7-2.4c0.2-0.7,0.5-1.4,0.8-2.2c0.3-0.8,0.6-1.6,0.9-2.3l11.2-26.6h0.9l11.3,26.6c0.3,0.7,0.6,1.4,0.8,2.3
			c0.3,0.8,0.5,1.6,0.8,2.3c0.2,0.9,0.5,1.7,0.7,2.4c0.2-0.8,0.5-1.6,0.6-2.4c0.2-0.7,0.4-1.4,0.6-2.3c0.2-0.8,0.4-1.6,0.7-2.3
			l8.6-26.1h7.4L517.9,269H517l-12.2-29.2c-0.2-0.6-0.5-1.2-0.7-1.9c-0.2-0.7-0.5-1.4-0.6-2c-0.2-0.7-0.4-1.4-0.6-2.1
			c-0.2,0.7-0.5,1.4-0.7,2.1c-0.2,0.6-0.5,1.3-0.7,2c-0.2,0.7-0.5,1.3-0.7,1.9L488.2,269h-0.9L470.2,219.5z"/>
		<path class="st7 o19" d="M557.4,219.5h7.6v49h-7.6V219.5z"/>
		<path class="st7 o20" d="M591.4,219.5h7.6v42.3h22.6v6.7h-30.2V219.5z"/>
		<path class="st7 o21" d="M665,269.2c-3.5,0-6.7-0.6-9.8-1.9c-3.1-1.2-5.7-3-8-5.2c-2.3-2.2-4-4.9-5.4-8c-1.3-3.1-2-6.4-2-10.1
			c0-3.6,0.7-7,2-10.1c1.3-3.1,3.1-5.7,5.4-7.9c2.3-2.2,4.9-3.9,8-5.2c3.1-1.2,6.3-1.9,9.8-1.9c8.7,0,15.3,3.2,19.6,9.7l-5.8,4.2
			c-1.4-2.2-3.2-3.9-5.5-5.1c-2.3-1.3-5-1.9-8.2-1.9c-2.5,0-4.9,0.5-7,1.4c-2.1,0.9-3.9,2.2-5.5,3.8s-2.7,3.6-3.6,5.8
			c-0.9,2.2-1.3,4.6-1.3,7.2c0,2.6,0.4,5,1.3,7.2c0.9,2.2,2.1,4.2,3.6,5.8c1.5,1.6,3.4,2.9,5.5,3.9c2.1,0.9,4.4,1.4,7,1.4
			c3.4,0,6.3-0.7,8.6-2.1c2.3-1.4,4.3-3.3,5.9-5.6l5.8,4.1c-2.2,3.3-4.9,5.8-8.3,7.7C673.6,268.2,669.6,269.2,665,269.2z"/>
		<path class="st7 o22" d="M731,269.2c-3.5,0-6.8-0.6-9.9-1.9c-3.1-1.2-5.7-3-8-5.2c-2.3-2.2-4.1-4.9-5.4-8c-1.3-3.1-2-6.4-2-10.1
			c0-3.6,0.7-7,2-10.1c1.3-3.1,3.1-5.7,5.4-8c2.3-2.2,5-4,8-5.2c3.1-1.2,6.4-1.9,9.9-1.9c3.5,0,6.8,0.6,9.8,1.9c3,1.2,5.7,3,8,5.2
			c2.3,2.2,4.1,4.9,5.4,8c1.3,3.1,2,6.4,2,10.1c0,3.6-0.7,7-2,10.1c-1.3,3.1-3.1,5.7-5.4,8c-2.3,2.2-4.9,4-8,5.2
			C737.8,268.5,734.5,269.2,731,269.2z M731,262.3c2.5,0,4.9-0.5,7-1.4c2.1-0.9,4-2.2,5.5-3.9c1.5-1.6,2.7-3.6,3.6-5.8
			c0.9-2.2,1.3-4.6,1.3-7.2c0-2.6-0.4-5-1.3-7.2c-0.9-2.2-2.1-4.2-3.6-5.8s-3.4-2.9-5.5-3.9c-2.1-0.9-4.5-1.4-7-1.4
			c-2.5,0-4.9,0.5-7.1,1.4c-2.2,0.9-4,2.2-5.5,3.9s-2.7,3.6-3.6,5.8c-0.9,2.2-1.3,4.6-1.3,7.2c0,2.6,0.4,5,1.3,7.2
			c0.9,2.2,2.1,4.2,3.6,5.8c1.5,1.6,3.4,2.9,5.5,3.9C726.1,261.8,728.5,262.3,731,262.3z"/>
		<path class="st7 o23" d="M788.6,241.7l-13.8-22.2h8.4l7.4,12c0.3,0.5,0.6,1,0.8,1.5c0.3,0.6,0.5,1.1,0.8,1.6c0.2,0.6,0.5,1.2,0.8,1.8
			c0.2-0.6,0.4-1.2,0.6-1.7c0.2-0.5,0.5-1.1,0.8-1.6s0.5-1.1,0.8-1.6l7.3-12h8.2l-13.5,22.2l16.6,26.8h-8.4l-10.2-16.4
			c-0.3-0.5-0.6-1-0.9-1.6c-0.3-0.6-0.6-1.1-0.8-1.7c-0.3-0.6-0.6-1.2-0.8-1.8c-0.2,0.6-0.5,1.2-0.7,1.8c-0.2,0.5-0.5,1.1-0.8,1.6
			c-0.3,0.6-0.5,1.1-0.8,1.6l-10.1,16.4h-8.2L788.6,241.7z"/>
	</g>
</g>
</svg>
