<?xml version="1.0" encoding="utf-8"?>
<!-- Generator: Adobe Illustrator 19.1.0, SVG Export Plug-In . SVG Version: 6.00 Build 0)  -->
<svg version="1.1" xmlns="http://www.w3.org/2000/svg" xmlns:xlink="http://www.w3.org/1999/xlink" x="0px" y="0px"
	 viewBox="0 0 1000 500" style="enable-background:new 0 0 1000 500;" xml:space="preserve">
<style type="text/css">
	
	.st1{
		fill:none;
		stroke:#FECDC7;
		stroke-miterlimit:10;
			
		stroke-dasharray: 1000;
		stroke-dashoffset: 1000;

		-webkit-animation: outline 10s forwards;
		animation: outline 10s forwards;
		animation-delay: 0.5s;
	}

	.st1a{
		fill:none;
		stroke:#FECDC7;
		stroke-miterlimit:10;
			
		stroke-dasharray: 1000;
		stroke-dashoffset: 1000;

		-webkit-animation: outline 10s forwards;
		animation: outline 10s forwards;
		animation-delay: 1.5s;
	}

	.circle{
		opacity:0.95;
		fill:#FECDC7;

		-webkit-animation: fillCircle 3s forwards;
		animation: fillCircle 3s forwards;
	}

	.img {

		-webkit-animation: Op 7s forwards;
		animation: Op 7s forwards;
	}

	@-webkit-keyframes fillCircle {
		from { fill: none; }
		to { fill:#FECDC7; }
	}

	@keyframes fillCircle {
		from { fill: none; }
		to { fill:#FECDC7; }
	}

	@-webkit-keyframes Op {
		from { opacity: 0; }
		to { opacity: 1; }
	}

	@keyframes Op {
		from { opacity: 0; }
		to { opacity: 1; }
	}

	@-webkit-keyframes outline {
		to { stroke-dashoffset: 0;}
	}

	@keyframes outline {
		to { stroke-dashoffset: 0; }
	}

	.n1{
		animation-delay: 1.0s;
	}

	.n2{
		animation-delay: 1.2s;
	}

	.n3{
		animation-delay: 1.4s;
	}

	.n4{
		animation-delay: 1.6s;
	}

	.n5{
		animation-delay: 1.8s;
	}

	.n6{
		animation-delay: 2.0s;
	}

	.n7{
		animation-delay: 2.4s;
	}

	.n8{
		animation-delay: 2.6s;
	}

	.n9{
		animation-delay: 2.8s;
	}

	.n10{
		animation-delay: 2.0s;
	}

	.n11{
		animation-delay: 2.2s;
	}


</style>

<g id="name">
	<g>
		<path class="st1 n1" d="M230.1,229.1h18.1v0.4h-18.6v-32.6h18v0.4h-17.5v20.5h15.6v0.4h-15.6V229.1z"/>
		<path class="st1 n2" d="M296.2,229.5h-0.6l-7.8-8.9c-0.9,0.2-2,0.3-3.4,0.3h-6.4v8.5h-0.5v-32.6h6.9c2.1,0,4,0.3,5.5,1
			c1.6,0.6,2.8,1.5,3.9,2.6c1,1.1,1.8,2.4,2.3,3.8c0.5,1.5,0.7,3,0.7,4.7c0,1.4-0.2,2.7-0.5,4s-0.9,2.4-1.6,3.4
			c-0.7,1-1.6,1.9-2.7,2.6c-1.1,0.7-2.3,1.3-3.8,1.6L296.2,229.5z M284.5,220.5c2,0,3.8-0.3,5.3-0.9c1.5-0.6,2.8-1.4,3.7-2.4
			c1-1,1.7-2.3,2.2-3.7c0.5-1.4,0.7-2.9,0.7-4.6s-0.2-3.2-0.7-4.6c-0.5-1.4-1.2-2.7-2.2-3.7c-1-1-2.2-1.9-3.7-2.5
			c-1.5-0.6-3.3-0.9-5.3-0.9h-6.4v23.2H284.5z"/>
		<path class="st1 n3" d="M327.2,196.9h0.5v32.6h-0.5V196.9z"/>
		<path class="st1 n4" d="M378.8,196.9h0.6l-18.7,21l19.2,11.6h-0.9l-19-11.5v11.5h-0.5v-32.6h0.5v21L378.8,196.9z"/>
		<path class="st1 n5" d="M406.3,229.5h-0.5l13.4-33.5h0.1l13.3,33.5h-0.5l-2.8-7.1h-20.1L406.3,229.5z M419.2,197.2l-9.9,24.8h19.8
			L419.2,197.2z"/>
		<path class="st1 n6" d="M518.9,229.1l12.4-32.3h0.5L519,230.3h-0.1l-7.2-17.8l-7.2,17.8h-0.1l-12.9-33.5h0.5l12.4,32.3l7-17.3
			l-6.1-15h0.5l5.9,14.4l5.9-14.4h0.5l-6.1,15L518.9,229.1z"/>
		<path class="st1 n7" d="M560.5,196.9h0.5v32.6h-0.5V196.9z"/>
		<path class="st1 n8" d="M593,229.5v-32.6h0.5V229h16.8v0.5H593z"/>
		<path class="st1 n9" d="M663.9,223.6c-2.9,4.2-7.4,6.2-13.3,6.2c-2.3,0-4.5-0.4-6.5-1.2c-2-0.8-3.8-2-5.3-3.5
			c-1.5-1.5-2.7-3.2-3.6-5.3c-0.9-2-1.3-4.3-1.3-6.7c0-2.4,0.4-4.6,1.3-6.7c0.8-2,2-3.8,3.5-5.3c1.5-1.5,3.2-2.6,5.2-3.5
			c2-0.8,4.1-1.2,6.4-1.2c2.8,0,5.3,0.5,7.2,1.5c2,1,3.8,2.5,5.4,4.4l-0.4,0.3c-1.5-1.9-3.3-3.4-5.2-4.3s-4.3-1.4-7.1-1.4
			c-2.2,0-4.3,0.4-6.2,1.2c-1.9,0.8-3.6,1.9-5.1,3.3c-1.4,1.4-2.6,3.1-3.4,5.1c-0.8,2-1.2,4.2-1.2,6.6c0,2.4,0.4,4.6,1.3,6.6
			c0.8,2,2,3.7,3.5,5.1c1.5,1.4,3.2,2.5,5.1,3.3c2,0.8,4.1,1.2,6.3,1.2c5.8,0,10.1-2,12.9-6.1L663.9,223.6z"/>
		<path class="st1 n10" d="M706.3,196.5c2.3,0,4.5,0.4,6.5,1.2c2,0.8,3.8,2,5.3,3.5c1.5,1.5,2.7,3.2,3.6,5.3c0.9,2,1.3,4.3,1.3,6.7
			c0,2.4-0.4,4.6-1.3,6.7c-0.9,2-2.1,3.8-3.6,5.3c-1.5,1.5-3.3,2.6-5.3,3.5c-2,0.8-4.2,1.2-6.5,1.2c-2.3,0-4.5-0.4-6.5-1.2
			c-2-0.8-3.8-2-5.3-3.5c-1.5-1.5-2.7-3.2-3.6-5.3c-0.9-2-1.3-4.3-1.3-6.7c0-2.4,0.4-4.6,1.3-6.7c0.9-2,2.1-3.8,3.6-5.3
			c1.5-1.5,3.3-2.6,5.3-3.5C701.9,196.9,704,196.5,706.3,196.5z M706.3,229.4c2.2,0,4.3-0.4,6.3-1.2c2-0.8,3.7-1.9,5.1-3.3
			c1.5-1.4,2.6-3.1,3.5-5.1c0.8-2,1.3-4.2,1.3-6.6c0-2.4-0.4-4.6-1.3-6.6c-0.8-2-2-3.7-3.5-5.1s-3.2-2.5-5.1-3.3
			c-2-0.8-4-1.2-6.3-1.2s-4.3,0.4-6.3,1.2c-2,0.8-3.7,1.9-5.1,3.3c-1.5,1.4-2.6,3.1-3.5,5.1c-0.8,2-1.3,4.2-1.3,6.6
			c0,2.4,0.4,4.6,1.3,6.6c0.8,2,2,3.7,3.5,5.1c1.5,1.4,3.2,2.5,5.1,3.3C702,229,704.1,229.4,706.3,229.4z"/>
		<path class="st1 n11" d="M748.5,196.9h0.5l9.7,14.7l9.7-14.7h0.5l-10,15.1l11.7,17.6h-0.5l-11.4-17.2l-11.4,17.2h-0.5l11.7-17.6
			L748.5,196.9z"/>
	</g>
</g>
<!-- <g id="comp">
	<ellipse class="circle" cx="511.6" cy="87.6" rx="38.9" ry="37.4"/>
	<g id="w45cw9.tif_1_">
		
			<image class="img" style="overflow:visible;" width="413" height="313" id="Layer_0_2_" xlink:href="72984D5691824E6F.png"  transform="matrix(0.1087 0 0 0.1087 489.5896 70.5971)">
		</image>
	</g>
</g> -->
<!-- <g id="Layer_4">
	<line class="st1" x1="511.6" y1="125" x2="512" y2="179.6"/>
	<line class="st1a" x1="512" y1="257.6" x2="512" y2="400.0"/>
	
</g> -->
</svg>
